<svg xmlns="http://www.w3.org/2000/svg" width="30" height="27" fill="none" viewBox="0 0 30 27"><path fill="#fff" fill-rule="evenodd" d="m18.728 23.498-8.93-5.219v5.89c1.185.67 2.514.99 3.93.99q2.168 0 3.815-.874a7 7 0 0 0 1.185-.787M25 24.838V14.226l-10.376 6.035 4.682 2.711c.318-.291.578-.612.81-.962v2.828zM9.075 23.73V13.089L5 15.45c.058 1.837.434 3.47 1.156 4.898.723 1.458 1.705 2.566 2.92 3.382M25 13.38v-7.9h-4.884v2.74a6.3 6.3 0 0 0-1.387-1.4v10.205zM13.18 9.854l-4.827-2.8a9.4 9.4 0 0 0-2.197 2.828q-1.083 2.056-1.127 4.723zm4.364-3.819c-1.098-.583-2.341-.875-3.757-.875-1.648 0-3.15.409-4.48 1.225l-.077.049c-.071.043-.15.092-.212.155l8.988 5.248v-5.51a2.6 2.6 0 0 0-.342-.222z" clip-rule="evenodd"/></svg>