<svg version="1.1" xmlns="http://www.w3.org/2000/svg" width="114" height="32" viewBox="0 0 114 32">
<path fill="#ffffff" d="M47.104 0.019c0.052 0.053 0.065 0.13 0.038 0.235-0.026 0.234-0.078 0.6-0.156 1.095 3.296-0.052 5.845 0.066 7.65 0.352 0.183 0.026 0.221 0.131 0.118 0.313-0.288 0.496-0.812 0.73-1.57 0.704-1.909-0.078-4.028-0.039-6.355 0.118-0.392 4.433-0.588 9.452-0.588 15.057 0 4.746 0.169 8.514 0.509 11.303 2.903-0.078 3.226-0.003 4.952 0.284 0.209 0.026 0.261 0.13 0.157 0.313-0.288 0.495-0.798 0.743-1.53 0.743-2.354-0.026-2.874 0.106-5.54 0.381-1.876 0.194-3.642 0.444-5.498 1.044-0.157 0.052-0.261 0.052-0.314 0-0.026-0.052-0.026-0.157 0-0.313 0.261-1.043 0.759-1.669 1.491-1.878 1.621-0.469 2.775-0.472 4.83-0.536-0.235-0.287-0.379-0.625-0.431-1.017-0.21-1.851-0.314-4.419-0.314-7.704 0-7.196 0.327-13.050 0.98-17.561-2.615 0.209-4.995 0.6-7.14 1.173-0.183 0.053-0.301 0.053-0.353 0-0.079-0.052-0.091-0.156-0.039-0.313 0.261-0.991 0.745-1.578 1.452-1.76 1.307-0.339 3.425-0.573 6.355-0.704 0.209-0.677 0.575-1.12 1.098-1.33 0.104-0.026 0.17-0.026 0.197 0zM10.2 0.724c2.223-0.026 3.871 1.030 4.943 3.168 0.811 1.59 1.164 3.324 1.059 5.201-0.131 2.243-0.837 3.546-2.118 3.911-0.157 0.053-0.262 0.065-0.314 0.039-0.053-0.052-0.053-0.169 0-0.351 0.261-1.039 0.392-2.17 0.392-3.391 0-2.026-0.341-3.754-1.020-5.183-0.732-1.559-1.687-2.312-2.864-2.261-1.674 0.054-3.4 1.511-5.179 4.374-1.961 3.229-2.981 6.913-3.059 11.052-0.053 3.359 0.549 6.074 1.804 8.143s2.956 3.078 5.1 3.026c1.726-0.026 3.237-0.775 4.531-2.248 1.291-1.469 2.867-3.759 2.901-6.753 0.099-5.092 0.496-9.157 1.191-12.197 0.183-0.808 0.536-1.303 1.060-1.486 0.157-0.053 0.249-0.053 0.275 0 0 0.026-0.014 0.104-0.039 0.234-0.654 3.651-0.981 8.683-0.981 15.097v3.246c0.553-2.685 1.332-4.928 2.334-6.727 0.237-0.443 0.514-0.665 0.831-0.665 0.211 0 0.449 0.105 0.712 0.313 0.528 0.417 0.792 1.148 0.792 2.191-0.053 4.615 0.3 7.039 1.059 7.274 0.314 0.105 0.654-0.176 1.020-0.841 0.187-0.341 0.339-0.723 0.459-1.143-0.036-0.334-0.059-0.688-0.067-1.067-0.026-1.851 0.182-3.468 0.627-4.85 0.183-0.573 0.523-0.912 1.020-1.017 0.104 0 0.197 0.052 0.275 0.157-0.341 1.616-0.51 3.246-0.51 4.888 0 2.816 0.314 4.329 0.941 4.538 0.366 0.13 0.805-0.196 1.315-0.978s0.869-1.773 1.078-2.973c0.007-0.033 0.014-0.063 0.022-0.089-0.196-1.215-0.297-2.642-0.297-4.291 0-2.32 0.222-4.902 0.667-7.743 0.654-3.937 1.517-5.906 2.589-5.906 0.339 0 0.667 0.209 0.981 0.625 0.707 0.887 1.059 2.36 1.059 4.419 0 2.033-0.326 4.107-0.98 6.218-0.706 2.19-1.583 3.755-2.628 4.694 0.209 3.963 0.876 5.944 2.001 5.944 0.496 0 1.019-0.372 1.569-1.114 0.479-0.649 0.863-1.449 1.163-2.384-0.251-1.31-0.379-2.889-0.379-4.754 0-2.32 0.222-4.902 0.667-7.743 0.654-3.937 1.516-5.906 2.589-5.906 0.34 0 0.667 0.209 0.981 0.625 0.706 0.887 1.059 2.36 1.059 4.419 0 2.033-0.327 4.107-0.981 6.218-0.707 2.19-1.583 3.755-2.628 4.694 0.209 3.963 0.876 5.944 2 5.944 0.497 0 1.020-0.372 1.57-1.114 0.549-0.744 0.981-1.676 1.294-2.797 0.079-0.235 0.157-0.261 0.235-0.079 0.131 0.235 0.157 0.704 0.079 1.408-0.079 0.887-0.34 1.682-0.784 2.386-0.524 0.886-1.204 1.33-2.040 1.33-0.236 0-0.472-0.039-0.707-0.117-1.174-0.331-2.034-1.355-2.588-3.058-0.123 0.671-0.356 1.288-0.707 1.845-0.524 0.886-1.203 1.33-2.040 1.33-0.235 0-0.47-0.039-0.706-0.117-1.219-0.344-2.102-1.433-2.652-3.257-0.070 0.845-0.283 1.572-0.643 2.181-0.471 0.796-1.059 1.193-1.765 1.193-0.184 0-0.379-0.039-0.589-0.117-0.75-0.268-1.304-0.848-1.663-1.736-0.289 0.765-0.794 1.148-1.515 1.148-0.183 0-0.366-0.038-0.549-0.117-1.308-0.443-2.080-1.447-2.315-3.011-0.157-1.069-0.236-2.973-0.236-5.711-0.053-0.364-0.147-0.404-0.279-0.117-1.353 2.895-2.149 6.063-2.389 9.503-0.026 0.287-0.153 0.392-0.384 0.313-0.818-0.288-1.266-0.952-1.342-1.994-0.057-0.689-0.098-1.445-0.124-2.27-0.482 1.244-1.177 2.333-1.947 3.129-1.255 1.304-2.838 2.008-4.747 2.113-2.511 0.13-4.695-0.769-6.552-2.699-2.066-2.164-3.113-5.149-3.138-8.957-0.026-4.667 1.098-8.747 3.374-12.241 2.092-3.259 4.367-4.914 6.825-4.966zM85.416 8.741c0.104-0.026 0.169-0.026 0.196 0s0.026 0.105 0 0.235c-0.184 0.939-0.379 2.268-0.589 3.989 2.38-0.052 4.485 0.070 6.317 0.365 0.13 0.027 0.156 0.109 0.077 0.243-0.261 0.377-0.641 0.554-1.137 0.527-1.805-0.078-3.597-0.078-5.375 0-0.235 2.248-0.379 4.394-0.431 6.435-0.106 4.445 0.326 6.667 1.295 6.667 0.392 0 0.81-0.313 1.255-0.939 0.374-0.527 0.663-1.222 0.871-2.082 0.033-0.248 0.068-0.503 0.109-0.772 0.287-1.877 0.457-3.168 0.51-3.872-0.811-0.417-1.19-1.159-1.138-2.229 0.026-0.729 0.184-1.316 0.471-1.759 0.236-0.365 0.497-0.548 0.785-0.548 0.627 0 0.941 1.212 0.941 3.637 1.281 0.079 2.433-0.573 3.452-1.956 0.157-0.234 0.354-0.234 0.588 0 0.392 0.418 0.588 0.822 0.588 1.213 0 0.183-0.039 0.378-0.117 0.587-0.942 2.060-1.412 4.237-1.412 6.531 0 1.721 0.353 2.582 1.060 2.582 0.9 0 1.684-1.076 2.348-3.219-0.016-0.223-0.028-0.451-0.033-0.692-0.027-1.851 0.182-3.467 0.628-4.85 0.182-0.573 0.523-0.912 1.020-1.017 0.104 0 0.196 0.053 0.275 0.157-0.34 1.617-0.509 3.246-0.509 4.889 0 2.816 0.313 4.329 0.941 4.537 0.365 0.131 0.804-0.196 1.314-0.978 0.309-0.474 0.556-1.035 0.755-1.661-0.122-0.494-0.186-1.022-0.186-1.584 0-0.496 0.052-1.004 0.156-1.526 0.288-1.616 0.772-2.894 1.452-3.833 0.628-0.834 1.308-1.251 2.040-1.251 0.34 0 0.667 0.105 0.981 0.313 0.889 0.626 1.333 1.526 1.333 2.699 0 0.418-0.052 0.848-0.157 1.291-0.262 1.095-0.791 1.969-1.588 2.621s-1.642 1.004-2.531 1.055c0.157 1.486 0.563 2.347 1.216 2.582 0.183 0.078 0.393 0.117 0.628 0.117 0.758 0 1.524-0.345 2.295-1.036 0.555-0.497 1.004-1.114 1.348-1.848-0.030-0.12-0.068-0.266-0.113-0.44-0.21-0.835-0.144-1.434 0.196-1.8 0.156-0.156 0.287 0.117 0.392 0.822 0.679-3.521 1.62-5.84 2.824-6.961 0.235-0.235 0.484-0.353 0.745-0.353 0.315 0 0.614 0.157 0.903 0.469 0.156 0.182 0.13 0.352-0.078 0.509-0.367 0.313-0.549 0.821-0.549 1.525 0 1.095 0.404 2.556 1.216 4.381 0.523 1.226 0.784 2.256 0.784 3.089 0 0.861-0.275 1.545-0.823 2.054s-1.164 0.763-1.844 0.763c-1.333 0-2.406-0.9-3.216-2.699-0.053 0.13-0.157 0.273-0.315 0.43-0.020 0.016-0.038 0.024-0.056 0.035-0.214 0.392-0.475 0.741-0.787 1.041-0.693 0.664-1.51 0.997-2.452 0.997-0.47 0-0.941-0.091-1.412-0.273-0.653-0.261-1.216-0.769-1.686-1.526-0.060-0.090-0.114-0.183-0.167-0.276-0.109 0.408-0.261 0.781-0.46 1.117-0.471 0.796-1.060 1.193-1.765 1.193-0.183 0-0.38-0.038-0.588-0.117-0.867-0.31-1.473-1.032-1.819-2.168-0.436 1.732-1.216 2.598-2.34 2.598-1.020 0-1.792-0.561-2.316-1.681-0.419-0.861-0.627-1.838-0.627-2.934 0-1.46 0.3-3.063 0.902-4.81-0.628 0.288-1.348 0.43-2.158 0.43h-0.314c-0.027 0.497-0.117 1.689-0.275 3.574-0.132 1.572-0.196 2.803-0.196 3.692 0 0.681 0.039 1.283 0.118 1.807 0.026 0.131 0 0.209-0.079 0.236-0.052 0.052-0.143 0.052-0.274 0-0.666-0.213-1.037-0.797-1.118-1.743-0.427 0.613-0.968 0.922-1.627 0.922-0.184 0-0.379-0.026-0.589-0.078-1.072-0.261-1.805-1.017-2.197-2.269-0.314-1.069-0.432-2.79-0.353-5.162 0.052-2.164 0.274-4.381 0.667-6.649-0.967 0.078-1.935 0.209-2.903 0.391-0.131 0.026-0.209 0-0.235-0.078-0.052-0.052-0.052-0.117 0-0.196 0.104-0.6 0.497-0.938 1.177-1.017 0.471-0.051 1.177-0.103 2.118-0.156 0.314-1.538 0.575-2.66 0.784-3.364 0.131-0.469 0.418-0.782 0.864-0.939zM65.83 5.338c0.104-0.026 0.17-0.026 0.196 0 0.053 0.026 0.065 0.092 0.039 0.195-0.915 4.72-1.347 9.792-1.294 15.215 0.026 1.564 0.079 2.776 0.157 3.637 0.157 1.825 0.457 2.829 0.902 3.011 0.314 0.131 0.679-0.182 1.098-0.939 0.213-0.385 0.395-0.835 0.547-1.347-0.074-0.579-0.116-1.22-0.116-1.938 0-1.825 0.236-3.611 0.706-5.359 0.209-0.782 0.575-1.212 1.099-1.291 0.131-0.026 0.222-0.026 0.274 0 0.026 0.026 0.026 0.105 0 0.235-0.339 1.746-0.509 3.663-0.509 5.749 0 1.695 0.143 2.933 0.432 3.715 0.235 0.652 0.589 0.978 1.059 0.978 0.732 0 1.242-1.316 1.53-3.95l0.549-4.889c0.131-0.756 0.536-1.213 1.216-1.369 0.131-0.026 0.222-0.013 0.274 0.039 0.026 0.026 0.026 0.105 0 0.235-0.288 2.111-0.431 4.028-0.431 5.749 0 2.686 0.365 4.028 1.098 4.028 0.288 0 0.595-0.345 0.922-1.036 0.224-0.473 0.397-1.021 0.53-1.635-0.030-0.122-0.070-0.274-0.118-0.457-0.209-0.835-0.144-1.434 0.196-1.8 0.157-0.156 0.288 0.117 0.393 0.822 0.68-3.521 1.621-5.84 2.824-6.961 0.236-0.235 0.484-0.353 0.746-0.353 0.314 0 0.614 0.157 0.902 0.469 0.156 0.182 0.13 0.352-0.079 0.509-0.367 0.313-0.549 0.821-0.549 1.525 0 1.095 0.405 2.556 1.216 4.381 0.523 1.226 0.784 2.256 0.784 3.089 0 0.861-0.274 1.545-0.823 2.054s-1.165 0.763-1.844 0.763c-1.267 0-2.297-0.813-3.092-2.434-0.239 1.438-0.868 2.16-1.891 2.16-1.073 0-1.844-0.743-2.315-2.229-0.34 1.122-0.877 1.891-1.609 2.308-0.314 0.182-0.654 0.273-1.019 0.273-0.576 0-1.047-0.221-1.412-0.664-0.175-0.22-0.328-0.48-0.459-0.781-0.36 0.964-0.913 1.446-1.659 1.446-0.184 0-0.367-0.026-0.549-0.078-1.255-0.417-2.053-1.59-2.393-3.52-0.367 2.32-1.294 3.481-2.785 3.481-1.072 0-1.896-0.472-2.471-1.413-0.051-0.083-0.098-0.17-0.144-0.258-0.034 0.078-0.070 0.152-0.11 0.223-0.353 0.626-0.831 0.939-1.432 0.939-1.543 0-2.471-1.030-2.785-3.090-0.156-1.068-0.235-2.972-0.235-5.71-0.053-0.365-0.144-0.404-0.274-0.117-1.308 2.869-2.119 5.946-2.433 9.231-0.026 0.287-0.144 0.404-0.353 0.352-0.811-0.156-1.242-0.573-1.295-1.251-0.131-1.33-0.157-3.011-0.079-5.046 0.079-2.19 0.235-3.897 0.471-5.123 0.131-0.652 0.471-1.056 1.019-1.213 0.131-0.026 0.222-0.026 0.275 0s0.065 0.105 0.039 0.235c-0.367 2.478-0.484 5.293-0.353 8.448 0.601-2.868 1.372-5.137 2.315-6.805 0.261-0.469 0.536-0.704 0.824-0.704 0.444 0 0.824 0.261 1.137 0.782 0.236 0.392 0.354 0.978 0.354 1.76-0.053 4.615 0.3 7.028 1.059 7.236 0.366 0.105 0.732-0.201 1.099-0.919 0.106-0.208 0.194-0.429 0.271-0.655-0.076-0.405-0.115-0.835-0.115-1.295 0-0.707 0.079-1.465 0.235-2.276 0.339-1.727 0.876-3.073 1.609-4.041 0.732-0.968 1.477-1.453 2.236-1.453 0.706 0 1.32 0.444 1.843 1.331 0.314-4.694 0.877-8.513 1.687-11.46 0.104-0.365 0.392-0.612 0.863-0.743zM61.896 17.345c-0.449-0.103-0.971 0.392-1.565 1.486s-0.998 2.386-1.208 3.873c-0.079 0.573-0.119 1.108-0.119 1.602 0 0.992 0.138 1.767 0.416 2.327 0.277 0.561 0.588 0.855 0.931 0.88 0.581 0.053 1.175-0.6 1.783-1.955 0.659-1.512 0.963-3.232 0.911-5.163-0.027-0.886-0.172-1.629-0.436-2.229-0.212-0.494-0.449-0.768-0.713-0.821zM110.483 18.323c-0.576 0.913-1.242 2.947-2.001 6.102 0.418 0.886 0.955 1.59 1.609 2.111 0.575 0.469 1.111 0.704 1.608 0.704 0.549 0 0.824-0.299 0.824-0.899 0-0.522-0.353-1.604-1.060-3.247s-1.059-2.946-1.059-3.911c0-0.313 0.026-0.599 0.078-0.86zM79.129 18.323c-0.576 0.913-1.242 2.947-2 6.102 0.418 0.886 0.954 1.59 1.608 2.111 0.575 0.469 1.111 0.704 1.608 0.704 0.549 0 0.824-0.299 0.824-0.899 0-0.522-0.353-1.604-1.059-3.247s-1.059-2.946-1.059-3.911c0-0.313 0.026-0.599 0.079-0.86zM104.442 17.619c-0.419-0.103-0.89 0.327-1.412 1.291-0.575 1.043-0.929 2.256-1.060 3.638-0.052 0.6-0.065 1.043-0.038 1.33 0.94-0.209 1.7-0.873 2.275-1.995 0.47-0.912 0.707-1.89 0.707-2.934 0-0.807-0.157-1.251-0.471-1.33zM33.025 7.020c-0.289-0.157-0.628 0.769-1.020 2.776-0.392 2.009-0.654 4.199-0.784 6.571-0.053 1.043-0.079 2.347-0.079 3.911 1.517-2.398 2.275-5.852 2.275-10.364 0-1.8-0.131-2.763-0.392-2.895zM39.066 7.020c-0.289-0.157-0.628 0.769-1.020 2.776-0.392 2.009-0.654 4.199-0.784 6.571-0.053 1.043-0.079 2.347-0.079 3.911 1.517-2.398 2.275-5.852 2.275-10.364 0-1.8-0.132-2.763-0.392-2.895zM26.787 15.038c0.496-0.078 0.784 0.195 0.863 0.821 0.052 0.365-0.026 0.678-0.235 0.939-0.21 0.261-0.458 0.417-0.746 0.469s-0.523-0.006-0.706-0.175c-0.184-0.17-0.249-0.424-0.197-0.763 0.104-0.782 0.445-1.212 1.020-1.291zM98.548 15.038c0.495-0.078 0.783 0.195 0.862 0.821 0.052 0.365-0.027 0.678-0.236 0.939s-0.458 0.417-0.745 0.469c-0.288 0.052-0.524-0.006-0.707-0.175s-0.249-0.424-0.196-0.763c0.103-0.782 0.444-1.212 1.020-1.291z"></path>
</svg>
