<svg width="128" height="40" viewBox="0 0 128 40" fill="none" xmlns="http://www.w3.org/2000/svg">
<g clip-path="url(#clip0_77611_88)">
<path d="M46.9687 1.69091C44.8825 2.65615 42.7964 3.86271 42.3056 4.34533C41.5284 5.10948 41.2421 5.14969 40.3831 4.78773C38.2152 3.82249 34.6974 4.78773 31.9977 7.16061C30.3206 8.60847 30.0752 8.68891 27.2937 8.68891C22.3034 8.72913 18.9492 10.0161 16.4132 12.751C15.1451 14.1586 14.8997 14.6814 14.8997 16.25C14.8997 19.1055 16.2905 21.1164 19.3992 22.6447C20.7081 23.3284 20.749 23.3686 19.9718 23.6904C17.8857 24.4143 16.7404 27.3905 17.8039 29.3612C18.9083 31.4123 23.9396 32.2569 28.1936 31.1308C30.7706 30.4873 32.0795 30.8492 32.0795 32.2971C32.0795 34.1069 31.016 35.5548 29.1344 36.2787C26.2302 37.445 22.7124 36.2787 19.89 33.2221C16.7404 29.8036 16.5768 29.6829 15.3088 29.6829C13.5908 29.6829 11.4638 30.6079 10.6457 31.734C8.88679 34.2276 10.932 37.0429 15.3497 38.3701C19.3992 39.5364 29.5844 39.456 33.5521 38.2494C37.1107 37.1233 39.6877 35.4743 40.9557 33.4634C43.9417 28.5568 39.1969 22.9664 33.5112 24.6556C32.5295 24.9371 30.4024 26.1839 28.8072 27.4307C24.6349 30.6481 22.5897 31.0101 22.3443 28.5568C22.2216 27.5111 22.467 26.9883 23.6123 25.8622C24.9213 24.5752 25.2894 24.4545 27.3346 24.4545C30.6479 24.4545 33.3475 23.7708 35.8018 22.3229C38.706 20.6338 39.8513 18.9044 39.8513 16.2902C39.8513 14.4401 39.7286 14.1586 37.9288 12.4292C36.8244 11.4238 35.5973 10.3379 35.1473 10.0563C34.452 9.65415 34.7792 9.61393 37.1107 9.81503C40.0558 10.0966 41.2012 9.61393 41.8965 7.80411C42.1829 7.03996 42.2238 7.03996 42.8373 8.0052C43.7781 9.37262 44.1463 15.1641 43.6145 19.9501C43.2873 23.0067 43.0419 23.8915 42.2647 24.6958C41.5284 25.5002 41.4057 25.8622 41.7329 26.385C42.6328 27.7926 47.6231 28.4361 51.7545 27.672C54.9041 27.0687 55.3131 26.5459 54.0042 24.6958C53.3906 23.811 52.8998 22.3229 52.6953 20.9153C52.4498 19.0653 52.6544 9.05088 53.0634 1.53004C53.1452 0.243052 53.0634 0.122397 51.9181 0.00174196C51.1409 -0.0384764 49.3002 0.564799 46.9687 1.69091ZM28.9299 12.3086C30.5251 14.963 29.7071 21.5588 27.7437 22.3229C25.2076 23.2882 23.9396 15.0836 26.1075 11.7857C27.0074 10.4585 27.9482 10.6194 28.9299 12.3086Z" fill="white"/>
<path d="M4.34641 1.32879C2.87385 2.53535 2.42391 3.98321 3.03747 5.75282C4.59183 10.3377 11.9546 8.44745 11.0547 3.7419C10.4411 0.685301 6.71885 -0.641906 4.34641 1.32879Z" fill="white"/>
<path d="M63.903 8.76942C59.9762 9.41291 57.0311 11.9467 57.6038 14.1185C57.931 15.4859 59.199 16.1294 61.4079 16.1294C63.6167 16.1294 64.5575 15.325 65.171 12.9521C65.4165 11.9467 65.9073 11.0619 66.2755 10.901C68.0343 10.2575 68.9751 14.0782 67.4208 15.6468C66.9299 16.1294 64.8029 16.8935 62.1441 17.5772C56.8266 18.9447 55.3949 20.0708 55.3949 22.8861C55.3949 26.5459 60.5489 29.0797 64.8029 27.5112C65.5801 27.2297 66.889 26.7068 67.6662 26.3448C69.016 25.7818 69.2206 25.7818 71.9612 26.8677C75.3153 28.2351 76.7879 28.3155 78.7513 27.3503C80.1011 26.6666 80.3056 26.6666 81.1646 27.2297C82.4326 28.0742 90.2863 28.1145 91.7997 27.3101C93.3541 26.4655 93.4768 26.0231 92.4133 24.7763C91.1862 23.3687 90.818 21.5186 91.0634 18.261C91.3089 15.6065 92.6587 12.3891 93.5995 12.3891C94.3358 12.3891 94.663 14.5206 94.663 19.9501C94.663 24.9774 95.0721 26.3046 96.9537 27.2699C98.508 28.1145 103.253 28.034 104.644 27.1492C106.034 26.2644 105.994 25.822 104.439 24.4144L103.13 23.2078L103.376 19.7088C103.498 17.7783 103.866 15.5663 104.235 14.762C104.889 13.1934 105.953 12.1075 106.403 12.5499C106.566 12.7108 106.771 15.325 106.852 18.3414C106.934 21.3578 107.18 24.3339 107.425 24.9372C107.916 26.2242 109.757 27.471 111.802 27.8731C113.765 28.2753 117.406 27.7525 118.469 26.8677L119.41 26.1438L118.551 25.1785C117.119 23.6904 116.465 22.0817 115.565 17.8186C114.133 11.4238 112.906 9.41291 110.125 8.80964C107.302 8.20636 104.562 9.93575 103.457 12.9923L102.967 14.5206L102.476 13.113C102.23 12.3489 101.412 11.1423 100.635 10.4184C98.099 8.00527 94.9084 8.08571 92.6178 10.6597L91.268 12.1478L91.5543 10.6999C92.0451 7.96505 90.1226 7.96505 84.6415 10.6597C81.5328 12.188 79.9375 13.4348 79.9375 14.3196C79.9375 14.6011 80.3056 15.325 80.7147 15.8881C82.269 17.8186 82.3099 22.685 80.7556 24.535L80.0193 25.46L79.1194 24.6557C77.8923 23.5698 77.6059 22.7654 76.8697 18.1805C75.8062 11.7054 74.0473 9.614 68.8933 8.80964C67.4208 8.56833 66.1527 8.40745 66.03 8.40745C65.9073 8.44767 64.9665 8.60855 63.903 8.76942ZM68.4843 20.5534C68.4843 23.3285 68.0753 24.0524 66.48 24.0524C63.5758 24.0122 63.1667 21.7197 65.7028 19.5479C68.198 17.4164 68.4843 17.537 68.4843 20.5534Z" fill="white"/>
<path d="M6.75975 10.177C3.20108 11.8259 0.992249 13.3944 0.992249 14.239C0.992249 14.5608 1.40129 15.4053 1.93305 16.0488C2.66932 17.0945 2.83294 17.8184 2.83294 20.4326C2.83294 23.2479 2.71023 23.6903 1.81033 24.6556C0.501397 26.023 1.03315 26.9078 3.48741 27.5513C6.84156 28.3959 12.7727 27.9535 14.0407 26.7067C14.4907 26.2241 14.4088 25.9023 13.4271 24.6154C12.2818 23.1675 12.2409 22.9664 12.2409 18.2609C12.2409 15.5662 12.3227 12.389 12.4454 11.1824L12.65 8.97041L11.2183 8.88997C10.2775 8.80953 8.76406 9.25193 6.75975 10.177Z" fill="white"/>
<path d="M120.964 21.0359C119.656 22.3229 119.533 22.6447 119.737 24.1327C120.065 26.5056 121.578 27.873 123.91 27.873C126.487 27.873 128 26.385 128 23.811C128 22.2425 127.795 21.8001 126.65 20.7946C124.728 19.1054 122.846 19.1859 120.964 21.0359Z" fill="white"/>
<path d="M61.7656 34.2699C61.7656 34.0163 61.8133 33.7685 61.9085 33.5265C62.0077 33.2807 62.1506 33.0582 62.3372 32.8592C62.5237 32.6602 62.7499 32.5021 63.0159 32.3851C63.2857 32.2641 63.5894 32.2036 63.9267 32.2036C64.3316 32.2036 64.6848 32.2875 64.9865 32.4553C65.2881 32.6192 65.5124 32.8377 65.6592 33.1109L64.7721 33.7314C64.7205 33.5948 64.6451 33.4895 64.5459 33.4153C64.4506 33.3412 64.3455 33.2904 64.2304 33.2631C64.1192 33.2319 64.0101 33.2163 63.9029 33.2163C63.7362 33.2163 63.5914 33.2495 63.4683 33.3158C63.3493 33.3782 63.25 33.4621 63.1706 33.5675C63.0952 33.6729 63.0377 33.7899 62.998 33.9187C62.9623 34.0475 62.9444 34.1763 62.9444 34.3051C62.9444 34.4495 62.9662 34.588 63.0099 34.7207C63.0536 34.8534 63.1171 34.9724 63.2004 35.0777C63.2838 35.1792 63.385 35.2592 63.504 35.3177C63.6271 35.3763 63.764 35.4056 63.9148 35.4056C64.022 35.4056 64.1311 35.3899 64.2423 35.3587C64.3534 35.3236 64.4546 35.269 64.5459 35.1948C64.6372 35.1207 64.7066 35.0212 64.7543 34.8963L65.7009 35.4524C65.6175 35.6553 65.4786 35.829 65.2841 35.9734C65.0897 36.1177 64.8694 36.229 64.6233 36.307C64.3772 36.3812 64.1331 36.4182 63.891 36.4182C63.5775 36.4182 63.2897 36.3577 63.0278 36.2368C62.7698 36.1119 62.5455 35.948 62.355 35.7451C62.1685 35.5382 62.0236 35.308 61.9204 35.0543C61.8172 34.7968 61.7656 34.5353 61.7656 34.2699Z" fill="white"/>
<path d="M70.7534 36.4182C70.4319 36.4182 70.1402 36.3597 69.8782 36.2426C69.6163 36.1217 69.39 35.9617 69.1995 35.7626C69.013 35.5597 68.8681 35.3334 68.7649 35.0836C68.6657 34.8299 68.6161 34.5685 68.6161 34.2992C68.6161 34.0221 68.6697 33.7587 68.7768 33.509C68.884 33.2592 69.0328 33.0368 69.2233 32.8417C69.4178 32.6426 69.646 32.4865 69.908 32.3734C70.1739 32.2602 70.4637 32.2036 70.7772 32.2036C71.0987 32.2036 71.3904 32.2641 71.6524 32.3851C71.9143 32.5021 72.1386 32.6621 72.3251 32.8651C72.5117 33.068 72.6545 33.2963 72.7538 33.5499C72.857 33.7997 72.9086 34.0573 72.9086 34.3226C72.9086 34.5958 72.855 34.8573 72.7478 35.107C72.6446 35.3568 72.4958 35.5812 72.3013 35.7802C72.1108 35.9753 71.8846 36.1314 71.6226 36.2485C71.3606 36.3617 71.0709 36.4182 70.7534 36.4182ZM69.7949 34.3109C69.7949 34.4514 69.8147 34.588 69.8544 34.7207C69.8941 34.8495 69.9536 34.9665 70.033 35.0719C70.1124 35.1734 70.2116 35.2553 70.3307 35.3177C70.4537 35.3763 70.5986 35.4056 70.7653 35.4056C70.932 35.4056 71.0769 35.3743 71.1999 35.3119C71.3229 35.2495 71.4222 35.1656 71.4976 35.0602C71.577 34.9509 71.6345 34.8319 71.6702 34.7031C71.7099 34.5704 71.7298 34.4358 71.7298 34.2992C71.7298 34.1587 71.7099 34.0241 71.6702 33.8953C71.6305 33.7665 71.571 33.6514 71.4916 33.5499C71.4122 33.4446 71.311 33.3626 71.188 33.3041C71.065 33.2456 70.9221 33.2163 70.7593 33.2163C70.5926 33.2163 70.4478 33.2475 70.3247 33.3099C70.2057 33.3724 70.1064 33.4563 70.0271 33.5617C69.9477 33.6631 69.8882 33.7802 69.8485 33.9129C69.8127 34.0417 69.7949 34.1743 69.7949 34.3109Z" fill="white"/>
<path d="M78.7239 33.5851C78.7239 33.5851 78.6901 33.5656 78.6226 33.5265C78.5552 33.4875 78.4659 33.4446 78.3547 33.3977C78.2436 33.347 78.1226 33.3021 77.9916 33.2631C77.8606 33.2241 77.7316 33.2046 77.6046 33.2046C77.5054 33.2046 77.424 33.2202 77.3605 33.2514C77.297 33.2826 77.2653 33.3353 77.2653 33.4095C77.2653 33.4797 77.297 33.5363 77.3605 33.5792C77.424 33.6221 77.5133 33.6612 77.6284 33.6963C77.7475 33.7314 77.8884 33.7743 78.0511 33.8251C78.3131 33.9031 78.5393 33.9929 78.7298 34.0943C78.9203 34.1958 79.0672 34.3265 79.1704 34.4865C79.2736 34.6426 79.3252 34.8514 79.3252 35.1129C79.3252 35.3626 79.2795 35.5734 79.1882 35.7451C79.0969 35.9129 78.9739 36.0475 78.8191 36.149C78.6643 36.2504 78.4917 36.3246 78.3012 36.3714C78.1106 36.4143 77.9162 36.4358 77.7177 36.4358C77.5153 36.4358 77.303 36.4163 77.0807 36.3773C76.8624 36.3343 76.6501 36.2777 76.4437 36.2075C76.2373 36.1334 76.0488 36.0475 75.8781 35.9499L76.3782 34.949C76.3782 34.949 76.4179 34.9724 76.4973 35.0192C76.5766 35.066 76.6818 35.1187 76.8128 35.1773C76.9438 35.2358 77.0886 35.2885 77.2474 35.3353C77.4101 35.3821 77.5728 35.4056 77.7356 35.4056C77.8626 35.4056 77.9499 35.3899 77.9975 35.3587C78.0491 35.3236 78.0749 35.2787 78.0749 35.2241C78.0749 35.1421 78.0313 35.0797 77.9439 35.0368C77.8566 34.9899 77.7415 34.947 77.5986 34.908C77.4597 34.8651 77.3049 34.8163 77.1343 34.7617C76.8882 34.6797 76.6858 34.588 76.527 34.4865C76.3683 34.3812 76.2512 34.2582 76.1758 34.1177C76.1004 33.9734 76.0626 33.7997 76.0626 33.5968C76.0626 33.2885 76.1361 33.0309 76.2829 32.8241C76.4298 32.6173 76.6223 32.4612 76.8604 32.3558C77.1025 32.2465 77.3625 32.1919 77.6403 32.1919C77.8467 32.1919 78.0452 32.2173 78.2357 32.268C78.4302 32.3148 78.6107 32.3734 78.7774 32.4436C78.9481 32.5138 79.0969 32.5802 79.224 32.6426L78.7239 33.5851Z" fill="white"/>
<path d="M85.8334 36.3831V34.1938L85.125 35.7334H84.5058L83.7973 34.1938V36.3831H82.6364V32.227H83.9045L84.8154 34.1821L85.7322 32.227H86.9944V36.3831H85.8334Z" fill="white"/>
<path d="M93.5284 35.388V36.3831H90.5159V32.227H93.4748V33.2221H91.6769V33.8075H93.2129V34.7324H91.6769V35.388H93.5284Z" fill="white"/>
<path d="M100.159 33.2221H98.9442V36.3831H97.7833V33.2221H96.5628V32.227H100.159V33.2221Z" fill="white"/>
<path d="M103.38 36.3831V32.227H104.541V36.3831H103.38Z" fill="white"/>
<path d="M107.835 34.2699C107.835 34.0163 107.883 33.7685 107.978 33.5265C108.077 33.2807 108.22 33.0582 108.407 32.8592C108.593 32.6602 108.819 32.5021 109.085 32.3851C109.355 32.2641 109.659 32.2036 109.996 32.2036C110.401 32.2036 110.754 32.2875 111.056 32.4553C111.358 32.6192 111.582 32.8377 111.729 33.1109L110.842 33.7314C110.79 33.5948 110.715 33.4895 110.615 33.4153C110.52 33.3412 110.415 33.2904 110.3 33.2631C110.189 33.2319 110.08 33.2163 109.972 33.2163C109.806 33.2163 109.661 33.2495 109.538 33.3158C109.419 33.3782 109.32 33.4621 109.24 33.5675C109.165 33.6729 109.107 33.7899 109.068 33.9187C109.032 34.0475 109.014 34.1763 109.014 34.3051C109.014 34.4495 109.036 34.588 109.079 34.7207C109.123 34.8534 109.187 34.9724 109.27 35.0777C109.353 35.1792 109.455 35.2592 109.574 35.3177C109.697 35.3763 109.834 35.4056 109.984 35.4056C110.092 35.4056 110.201 35.3899 110.312 35.3587C110.423 35.3236 110.524 35.269 110.615 35.1948C110.707 35.1207 110.776 35.0212 110.824 34.8963L111.77 35.4524C111.687 35.6553 111.548 35.829 111.354 35.9734C111.159 36.1177 110.939 36.229 110.693 36.307C110.447 36.3812 110.203 36.4182 109.961 36.4182C109.647 36.4182 109.359 36.3577 109.097 36.2368C108.839 36.1119 108.615 35.948 108.425 35.7451C108.238 35.5382 108.093 35.308 107.99 35.0543C107.887 34.7968 107.835 34.5353 107.835 34.2699Z" fill="white"/>
<path d="M117.542 33.5851C117.542 33.5851 117.508 33.5656 117.441 33.5265C117.373 33.4875 117.284 33.4446 117.173 33.3977C117.062 33.347 116.94 33.3021 116.809 33.2631C116.679 33.2241 116.55 33.2046 116.423 33.2046C116.323 33.2046 116.242 33.2202 116.178 33.2514C116.115 33.2826 116.083 33.3353 116.083 33.4095C116.083 33.4797 116.115 33.5363 116.178 33.5792C116.242 33.6221 116.331 33.6612 116.446 33.6963C116.565 33.7314 116.706 33.7743 116.869 33.8251C117.131 33.9031 117.357 33.9929 117.548 34.0943C117.738 34.1958 117.885 34.3265 117.988 34.4865C118.091 34.6426 118.143 34.8514 118.143 35.1129C118.143 35.3626 118.097 35.5734 118.006 35.7451C117.915 35.9129 117.792 36.0475 117.637 36.149C117.482 36.2504 117.31 36.3246 117.119 36.3714C116.929 36.4143 116.734 36.4358 116.536 36.4358C116.333 36.4358 116.121 36.4163 115.899 36.3773C115.68 36.3343 115.468 36.2777 115.262 36.2075C115.055 36.1334 114.867 36.0475 114.696 35.9499L115.196 34.949C115.196 34.949 115.236 34.9724 115.315 35.0192C115.395 35.066 115.5 35.1187 115.631 35.1773C115.762 35.2358 115.907 35.2885 116.065 35.3353C116.228 35.3821 116.391 35.4056 116.553 35.4056C116.68 35.4056 116.768 35.3899 116.815 35.3587C116.867 35.3236 116.893 35.2787 116.893 35.2241C116.893 35.1421 116.849 35.0797 116.762 35.0368C116.675 34.9899 116.559 34.947 116.417 34.908C116.278 34.8651 116.123 34.8163 115.952 34.7617C115.706 34.6797 115.504 34.588 115.345 34.4865C115.186 34.3812 115.069 34.2582 114.994 34.1177C114.918 33.9734 114.881 33.7997 114.881 33.5968C114.881 33.2885 114.954 33.0309 115.101 32.8241C115.248 32.6173 115.44 32.4612 115.678 32.3558C115.92 32.2465 116.18 32.1919 116.458 32.1919C116.665 32.1919 116.863 32.2173 117.054 32.268C117.248 32.3148 117.429 32.3734 117.595 32.4436C117.766 32.5138 117.915 32.5802 118.042 32.6426L117.542 33.5851Z" fill="white"/>
</g>
<defs>
<clipPath id="clip0_77611_88">
<rect width="128" height="40" fill="white"/>
</clipPath>
</defs>
</svg>
