<svg width="128" height="64" viewBox="0 0 128 64" fill="none" xmlns="http://www.w3.org/2000/svg">
<path d="M48.5635 63.0871C43.6148 63.0871 39.8271 61.5978 37.2003 58.6192C34.597 55.6172 33.2953 51.29 33.2953 45.6378V16.2273C33.2953 10.9268 34.5853 6.90454 37.1651 4.1605C39.7684 1.41646 43.5679 0.0444336 48.5635 0.0444336C53.559 0.0444336 57.3467 1.41646 59.9266 4.1605C62.5299 6.90454 63.8316 10.9268 63.8316 16.2273V45.6378C63.8316 51.29 62.5182 55.6172 59.8914 58.6192C57.2881 61.5978 53.5121 63.0871 48.5635 63.0871ZM48.669 51.6887C50.5453 51.6887 51.4834 49.8711 51.4834 46.2358V16.0162C51.4834 12.9672 50.5687 11.4428 48.7394 11.4428C46.6755 11.4428 45.6435 13.0024 45.6435 16.1217V46.3062C45.6435 48.2294 45.878 49.6131 46.3471 50.4574C46.8162 51.2783 47.5901 51.6887 48.669 51.6887Z" fill="white"/>
<path d="M83.1454 63.0871C77.9857 63.0871 74.1863 61.6447 71.7471 58.7599C69.308 55.8517 68.0884 51.5832 68.0884 45.9544V0.607314H80.12V45.4619C80.12 46.4938 80.1786 47.4906 80.2959 48.4522C80.4131 49.3903 80.6828 50.1643 81.105 50.7741C81.5272 51.3838 82.2073 51.6887 83.1454 51.6887C84.107 51.6887 84.7989 51.3956 85.2211 50.8092C85.6432 50.1994 85.9012 49.4138 85.995 48.4522C86.1123 47.4906 86.1709 46.4938 86.1709 45.4619V0.607314H98.2025V45.9544C98.2025 51.5832 96.9829 55.8517 94.5438 58.7599C92.1046 61.6447 88.3052 63.0871 83.1454 63.0871Z" fill="white"/>
<path d="M108.264 62.5242V12.4982H100.911V0.607314H128V12.4982H120.647V62.5242H108.264Z" fill="white"/>
<path fill-rule="evenodd" clip-rule="evenodd" d="M0 0.219757H29.5282V64.0006H0V0.219757ZM4.50305 58.7778H24.8037V54.8561H4.50305V58.7778ZM4.50305 53.2413H24.8037V49.2734H14.6534L24.8037 47.2434V43.2755H4.50305V47.1972H14.2266L4.50305 49.0658V53.2413ZM23.6041 40.6687C24.5268 39.8459 24.9882 38.5079 24.9882 36.6547C24.9882 34.9092 24.4499 33.6866 23.3734 32.9868C22.2892 32.2794 20.7935 31.9256 18.8865 31.9256C17.9407 31.9256 17.1409 32.0448 16.4873 32.2832C15.826 32.5216 15.2493 32.8368 14.7572 33.229C14.2573 33.6212 13.7844 34.0518 13.3384 34.5209L11.0892 36.8624C10.6586 37.3161 10.278 37.6198 9.9473 37.7736C9.61665 37.9274 9.30906 38.0043 9.02455 38.0043C8.74003 38.0043 8.50934 37.9312 8.33248 37.7851C8.14793 37.6313 8.05565 37.393 8.05565 37.07C8.05565 36.8009 8.13255 36.5894 8.28634 36.4356C8.44013 36.2741 8.65544 36.1934 8.93227 36.1934H10.3279V32.064C8.30557 32.064 6.7984 32.4562 5.80644 33.2406C4.81448 34.0172 4.31849 35.336 4.31849 37.1969C4.31849 38.7194 4.77218 39.8844 5.67956 40.6918C6.58693 41.4915 7.90571 41.8914 9.63587 41.8914C11.2891 41.8914 12.7579 41.2109 14.042 39.8498L15.7722 38.0273C16.2797 37.4891 16.7257 37.07 17.1102 36.7701C17.487 36.4625 17.8868 36.2472 18.3098 36.1242C18.725 36.0011 19.2441 35.9396 19.8669 35.9396C20.3591 35.9396 20.7128 36.0127 20.9281 36.1588C21.1434 36.2972 21.2511 36.5509 21.2511 36.92C21.2511 37.2738 21.1203 37.5237 20.8589 37.6698C20.5897 37.8082 20.2206 37.8774 19.7516 37.8774H17.214V41.8914H19.1979C21.2126 41.8914 22.6813 41.4838 23.6041 40.6687ZM4.50305 30.7491H24.8037V26.8274H4.50305V30.7491ZM4.50305 25.2126H24.8037V19.7683C24.8037 18.0843 24.2808 16.9078 23.235 16.2388C22.1892 15.5621 20.7051 15.2238 18.7827 15.2238H9.2783C7.71731 15.2238 6.53311 15.5929 5.7257 16.3311C4.9106 17.0693 4.50305 18.1689 4.50305 19.6299V25.2126ZM4.50305 13.5628H24.8037V5.17726H20.8473V9.43347H16.199V5.60403H12.3811V9.43347H8.42476V5.44255H4.50305V13.5628Z" fill="white"/>
<path d="M21.2164 21.1294V20.4258C21.2164 19.6799 20.855 19.3069 20.1322 19.3069H9.65894C8.98225 19.3069 8.54779 19.3992 8.35555 19.5838C8.15562 19.7606 8.05565 20.1259 8.05565 20.6795V21.1294H21.2164Z" fill="white"/>
</svg>
