<svg width="128" height="43" viewBox="0 0 128 43" fill="none" xmlns="http://www.w3.org/2000/svg">
<path d="M104.935 1.48691C104.322 5.331 104.731 6.72142 106.53 6.92589C108.984 7.21215 109.761 6.35336 110.17 2.91822C110.374 1.20065 110.334 0.791703 109.843 0.791703C109.393 0.791703 109.148 1.40512 108.943 2.83643C108.616 5.45368 108.003 6.31247 106.776 5.90352C105.917 5.65816 105.835 5.41279 105.999 2.91822C106.121 -0.0670832 105.385 -1.13034 104.935 1.48691Z" fill="white"/>
<path d="M57.7431 0.832833C53.0812 1.44625 48.8281 4.67692 46.7016 9.29801C45.1476 12.7332 45.1885 17.1907 46.7834 20.7485C48.2965 24.0609 51.8134 27.4143 54.8805 28.4367C57.0479 29.2137 62.6096 29.4999 63.223 28.9274C63.3866 28.7229 63.6728 27.4552 63.8773 26.0648C64.0409 24.6744 64.6543 22.5887 65.1859 21.4437C66.3719 18.8673 69.9297 15.1868 72.3016 14.1236C74.3054 13.2239 74.3872 12.8149 73.1604 9.62516C70.9521 3.61366 64.5316 -0.0259525 57.7431 0.832833ZM61.5054 13.3057C62.8959 14.6552 61.7508 17.5587 59.8697 17.5587C58.1112 17.5587 56.9252 14.6552 58.0703 13.2648C58.7246 12.4469 60.6875 12.4878 61.5054 13.3057Z" fill="white"/>
<path d="M97.8607 0.873619C96.7565 1.11899 96.1022 1.48704 96.1022 1.85509C96.1022 2.26403 96.3885 2.38672 97.0837 2.18225C97.9834 1.97777 98.1061 2.10046 98.515 4.0634C98.7604 5.20844 98.9649 6.43528 98.9649 6.72154C98.9649 7.0487 99.2511 7.33496 99.6192 7.33496C100.314 7.33496 100.314 6.76244 99.5374 3.00014C99.3329 1.93688 99.4556 1.69151 100.151 1.48704C101.173 1.24167 101.296 0.382884 100.314 0.423779C99.9054 0.464674 98.8013 0.628252 97.8607 0.873619Z" fill="white"/>
<path d="M13.4134 3.08158C8.34249 4.26753 4.33482 7.29372 2.2492 11.4241C0.368051 15.1455 0 17.9672 0 29.9084V40.8682H8.17891H16.3578V30.849V20.7889L17.3802 19.8075C17.9118 19.2349 18.6479 18.7851 19.016 18.7851C19.384 18.7851 20.1201 19.2349 20.6518 19.8075L21.6741 20.7889V30.849V40.8682H29.6486H37.623V30.6445C37.623 20.9525 37.6639 20.38 38.4409 19.603C38.8907 19.1531 39.6268 18.7851 40.0767 18.7851C40.5265 18.7851 41.2626 19.1531 41.7125 19.603C42.4895 20.38 42.5304 20.9525 42.5304 30.6445V40.8682H50.9137H59.338L59.2153 36.0835L59.0927 31.2988L57.4569 30.9717C52.8767 30.1947 48.9099 27.6592 46.4562 23.9378C44.3706 20.748 43.6345 18.1308 43.839 14.1231C44.0026 10.6062 45.3112 6.88478 47.1514 4.96273C48.2147 3.81769 47.8466 3.49053 44.8613 2.83622C40.0358 1.81385 35.1693 2.59085 31.6115 5.00363L29.6077 6.35315L27.6447 5.00363C24.0051 2.50906 18.7297 1.77296 13.4134 3.08158Z" fill="white"/>
<path d="M113.319 5.16757L111.642 7.9484L112.501 8.6845C114.627 10.4021 116.999 9.91134 118.022 7.53945C118.512 6.27172 118.553 5.94457 118.022 4.9631C117.695 4.34968 116.877 3.53179 116.222 3.12284L114.955 2.42763L113.319 5.16757ZM116.958 5.45383C117.695 7.41677 115.486 9.29792 113.728 8.19377C113.237 7.90751 113.36 7.49856 114.259 5.94457C115.404 3.98163 116.304 3.81805 116.958 5.45383Z" fill="white"/>
<path d="M90.0498 4.06336C88.7412 4.59499 88.046 6.27167 88.7821 7.17135C89.191 7.70298 89.7636 7.74387 91.4811 7.5394C93.2396 7.33492 93.6485 7.37582 93.6485 7.86655C93.6485 8.80713 92.5853 9.42055 91.4811 9.17518C90.1725 8.84802 89.6818 9.58413 90.7859 10.1975C91.9719 10.8519 94.63 9.54323 94.7936 8.2346C95.039 6.55793 94.1802 6.0263 91.7265 6.35345C89.5182 6.59882 88.9866 6.27167 90.1725 5.2902C90.4997 5.04483 91.1131 4.92214 91.5629 5.08572C92.2172 5.2902 93.1987 4.67678 92.7898 4.30873C92.299 3.85889 90.8677 3.7771 90.0498 4.06336Z" fill="white"/>
<path d="M120.148 10.4022C118.349 12.0789 117.94 12.6923 118.349 13.0194C118.717 13.3466 119.453 12.8559 121.171 11.0974C123.174 9.05267 123.706 8.11209 122.725 8.15299C122.602 8.19388 121.416 9.17535 120.148 10.4022Z" fill="white"/>
<path d="M122.111 14.5323C120.434 16.2089 120.966 18.7035 123.134 19.6441C125.219 20.5029 128 18.7035 128 16.4952C128 13.6735 124.238 12.4466 122.111 14.5323ZM126.364 15.3093C127.55 16.7406 125.383 19.1943 123.461 18.5808C122.316 18.2128 122.029 16.4952 122.888 15.5137C123.747 14.5323 125.628 14.4505 126.364 15.3093Z" fill="white"/>
<path d="M77.3725 14.3688C74.3872 14.8186 71.6882 16.2908 69.3981 18.7445C66.4946 21.8116 65.6767 23.9381 65.6767 28.3956C65.6767 31.2991 65.8402 32.4851 66.5355 33.9982C67.8032 36.8199 69.2754 38.5375 71.6882 40.2141C77.577 44.1809 84.6517 43.5675 89.968 38.5784L92.0128 36.6563V39.3962V42.0953H97.9425H103.872V34.5298V26.9643L104.895 26.31C105.835 25.6966 105.999 25.6966 106.939 26.31L107.962 26.9643V34.5298V42.0953H113.932H119.903L119.739 32.9758C119.617 24.7151 119.535 23.7336 118.717 21.9752C117.408 19.1125 114.873 16.618 111.928 15.2685C108.78 13.8371 104.118 13.6327 100.682 14.8186C98.2287 15.6774 94.4256 18.9081 93.6486 20.8301C93.3623 21.4844 93.0351 22.0569 92.8716 22.0569C92.7489 22.0569 92.1355 21.2391 91.522 20.2167C88.9457 15.9637 83.016 13.51 77.3725 14.3688ZM81.5438 26.8007C82.8115 28.0276 82.1163 30.2768 80.3169 30.8084C79.2946 31.1355 77.2907 29.7042 77.2907 28.641C77.2907 26.5554 80.1125 25.3285 81.5438 26.8007Z" fill="white"/>
</svg>
