<svg width="128" height="50" viewBox="0 0 128 50" fill="none" xmlns="http://www.w3.org/2000/svg">
<path d="M15.5991 13.3801L26.8575 26.564L26.9965 19.9263C27.1355 13.1055 26.5332 7.06288 25.4676 4.54513C24.68 2.62248 23.0121 1.15761 21.6685 1.15761C21.0199 1.15761 20.6955 0.974495 20.8345 0.699831C21.2052 0.150504 31.7223 0.0589502 31.7223 0.654055C31.7223 0.882941 31.2126 1.20338 30.564 1.34071C28.2475 1.93582 28.0158 3.26336 28.0158 16.1726C28.0158 27.4338 28.0621 28.0746 28.9424 28.8529C30.2397 30.0431 30.1007 30.4551 28.3865 30.4093C26.9502 30.4093 26.0236 29.448 15.7381 17.3628C7.86189 8.11576 4.57239 4.54513 4.4334 5.14023C4.34074 5.59801 4.38707 9.76373 4.52606 14.433C4.85038 25.8316 5.86966 28.8071 9.76145 29.9973C10.6881 30.272 9.15915 30.3635 5.08203 30.3635C0.495278 30.3635 -0.570332 30.272 0.58794 29.9515C3.2288 29.1733 3.46045 27.9831 3.46045 14.7535C3.46045 3.81269 3.41413 3.03448 2.53384 1.93582C1.32924 0.42517 1.37557 0.242066 2.95082 0.242066C4.20175 0.242066 5.54534 1.66116 15.5991 13.3801Z" fill="white"/>
<path d="M55.5827 30.4551C55.3974 30.7297 51.9689 30.9128 46.7335 30.9128C41.3591 30.9128 38.2086 30.7297 38.2086 30.4551C38.2086 30.1804 41.4518 29.9973 47.0578 29.9973C52.8028 29.9973 55.768 30.1346 55.5827 30.4551Z" fill="white"/>
<path d="M103.906 7.65798L104.045 14.8908H124.847V0.196289L125.913 0.333619L126.932 0.470949L127.071 15.4401L127.164 30.4551H124.847V15.8063H103.998V30.4551H101.219V15.669C101.219 7.52065 101.358 0.699834 101.543 0.516725C101.728 0.333616 102.284 0.242064 102.84 0.333619C103.72 0.470951 103.767 0.837162 103.906 7.65798Z" fill="white"/>
<path fill-rule="evenodd" clip-rule="evenodd" d="M55.351 20.3841C61.2351 14.6161 59.7061 5.32334 52.2932 1.61538C49.467 0.242066 45.2972 -0.0325995 42.4247 1.02028C38.1159 2.53093 34.5021 7.70376 34.5021 12.1899C34.5021 15.1655 36.17 18.7819 38.4866 20.7961C43.6293 25.2365 50.6253 25.0991 55.351 20.3841ZM36.4017 13.0597C36.3554 8.52775 38.8572 4.68246 43.0733 2.71403C47.6601 0.5625 53.2198 1.70693 55.6753 5.32334C57.1116 7.47487 57.5749 11.6406 56.741 14.6161C55.4437 19.1939 50.5789 22.6729 45.4826 22.6729C39.6449 22.6729 36.4017 19.2396 36.4017 13.0597Z" fill="white"/>
<path fill-rule="evenodd" clip-rule="evenodd" d="M92.1377 28.5782C91.5354 27.9831 88.3849 21.3912 85.0954 13.9752C79.5357 1.29494 79.0724 0.470951 77.8678 0.333619C76.6632 0.196287 76.6169 0.242064 76.8949 1.70694C77.1265 3.03448 76.3853 5.09445 71.9838 15.0739C69.1113 21.5743 66.2851 27.4795 65.6828 28.1662C65.0805 28.8986 63.8296 29.6769 62.8566 29.9057C61.513 30.272 62.7176 30.3635 68.3237 30.3635C72.2618 30.3177 74.9953 30.2262 74.3467 30.1346C70.0379 29.4022 69.2503 28.3951 69.9916 24.5498L70.4086 22.444L78.3311 22.3067L86.2537 22.2152L87.3657 25.4196C88.5703 28.9902 88.4313 29.4022 85.8367 29.9973C84.8638 30.2262 86.3927 30.3635 90.3308 30.3635C94.3153 30.3635 95.8442 30.2262 94.7786 29.9973C93.9446 29.8142 92.74 29.1275 92.1377 28.5782ZM72.2155 17.5001C73.0494 15.2112 74.671 11.1828 75.7366 8.57353C76.8485 6.01 77.7752 3.95002 77.8678 3.9958C78.0531 4.17891 82.4083 13.7464 84.3542 18.1868L85.8831 21.7574H70.6402L72.2155 17.5001Z" fill="white"/>
<path d="M33.6943 49.2751C33.2425 49.2751 32.8082 49.2036 32.3912 49.0606C31.98 48.9118 31.6615 48.7229 31.4356 48.4941L31.6875 48.0048C31.9018 48.2108 32.1885 48.3853 32.5476 48.5284C32.9124 48.6657 33.2946 48.7344 33.6943 48.7344C34.0765 48.7344 34.3863 48.6886 34.6238 48.5971C34.867 48.4998 35.0436 48.371 35.1537 48.2108C35.2695 48.0506 35.3274 47.8732 35.3274 47.6787C35.3274 47.444 35.2579 47.2552 35.1189 47.1122C34.9857 46.9691 34.8091 46.8575 34.589 46.7774C34.3689 46.6916 34.1257 46.6172 33.8593 46.5543C33.5929 46.4913 33.3265 46.4255 33.0601 46.3568C32.7937 46.2824 32.5476 46.1852 32.3217 46.065C32.1016 45.9448 31.9221 45.7875 31.7831 45.5929C31.6499 45.3927 31.5833 45.1323 31.5833 44.8119C31.5833 44.5143 31.6615 44.2425 31.8178 43.9964C31.98 43.7447 32.2261 43.5444 32.5562 43.3956C32.8864 43.2411 33.3091 43.1639 33.8246 43.1639C34.1662 43.1639 34.505 43.2125 34.8409 43.3098C35.1768 43.4013 35.4664 43.5301 35.7096 43.696L35.4925 44.2024C35.2319 44.0308 34.9539 43.9049 34.6585 43.8248C34.3689 43.7447 34.0881 43.7046 33.8159 43.7046C33.451 43.7046 33.1499 43.7533 32.9124 43.8505C32.675 43.9478 32.4983 44.0794 32.3825 44.2454C32.2725 44.4056 32.2175 44.5887 32.2175 44.7947C32.2175 45.0293 32.2841 45.2181 32.4173 45.3612C32.5562 45.5042 32.7358 45.6158 32.9559 45.6959C33.1817 45.776 33.4278 45.8476 33.6943 45.9105C33.9607 45.9735 34.2242 46.0421 34.4848 46.1165C34.7512 46.1909 34.9944 46.2882 35.2145 46.4083C35.4403 46.5228 35.6199 46.6773 35.7531 46.8718C35.8921 47.0664 35.9616 47.321 35.9616 47.6357C35.9616 47.9276 35.8805 48.1994 35.7183 48.4511C35.5562 48.6972 35.3071 48.8975 34.9712 49.052C34.6411 49.2007 34.2155 49.2751 33.6943 49.2751Z" fill="white"/>
<path d="M41.393 47.7302L41.3669 46.9577L45.0502 43.2154H45.7886L43.1043 45.9963L42.7395 46.3826L41.393 47.7302ZM40.837 49.2236V43.2154H41.4799V49.2236H40.837ZM45.2066 49.2236L42.5831 46.2367L43.0175 45.7732L45.9711 49.2236H45.2066Z" fill="white"/>
<path d="M50.4878 49.2236V43.2154H51.1306V49.2236H50.4878Z" fill="white"/>
<path d="M56.584 49.2236V43.2154H57.1139L61.3097 48.434H61.0317V43.2154H61.6659V49.2236H61.136L56.9488 44.005H57.2268V49.2236H56.584Z" fill="white"/>
<path d="M69.7664 49.2751C69.3088 49.2751 68.8861 49.2007 68.4981 49.052C68.11 48.8975 67.7741 48.6829 67.4904 48.4082C67.2066 48.1336 66.9836 47.8103 66.8215 47.4383C66.6651 47.0664 66.5869 46.6601 66.5869 46.2195C66.5869 45.7789 66.6651 45.3726 66.8215 45.0007C66.9836 44.6287 67.2066 44.3054 67.4904 44.0308C67.7799 43.7561 68.1187 43.5444 68.5067 43.3956C68.8948 43.2411 69.3175 43.1639 69.775 43.1639C70.2152 43.1639 70.6293 43.2383 71.0173 43.387C71.4053 43.5301 71.7325 43.7475 71.9989 44.0394L71.5906 44.4428C71.3416 44.191 71.0665 44.0107 70.7654 43.902C70.4642 43.7876 70.1399 43.7304 69.7924 43.7304C69.4276 43.7304 69.0888 43.7933 68.776 43.9192C68.4633 44.0394 68.1911 44.2139 67.9595 44.4428C67.7278 44.6659 67.5454 44.9292 67.4122 45.2324C67.2848 45.53 67.2211 45.859 67.2211 46.2195C67.2211 46.58 67.2848 46.9119 67.4122 47.2152C67.5454 47.5127 67.7278 47.7759 67.9595 48.0048C68.1911 48.228 68.4633 48.4025 68.776 48.5284C69.0888 48.6486 69.4276 48.7086 69.7924 48.7086C70.1399 48.7086 70.4642 48.6514 70.7654 48.537C71.0665 48.4225 71.3416 48.2394 71.5906 47.9876L71.9989 48.3911C71.7325 48.6829 71.4053 48.9032 71.0173 49.052C70.6293 49.2007 70.2123 49.2751 69.7664 49.2751Z" fill="white"/>
<path d="M75.7185 49.2236L78.4983 43.2154H79.1325L81.9123 49.2236H81.2347L78.6808 43.5844H78.9414L76.3874 49.2236H75.7185ZM76.813 47.6186L77.0042 47.1036H80.5398L80.7309 47.6186H76.813Z" fill="white"/>
<path d="M86.3931 49.2236V43.2154H88.6691C89.1845 43.2154 89.6276 43.2983 89.9982 43.4643C90.3688 43.6245 90.6526 43.8591 90.8495 44.1681C91.0522 44.4714 91.1536 44.8405 91.1536 45.2753C91.1536 45.6988 91.0522 46.065 90.8495 46.374C90.6526 46.6773 90.3688 46.9119 89.9982 47.0778C89.6276 47.238 89.1845 47.3182 88.6691 47.3182H86.7492L87.0359 47.0263V49.2236H86.3931ZM90.5455 49.2236L88.9818 47.0435H89.6768L91.2491 49.2236H90.5455ZM87.0359 47.0778L86.7492 46.7774H88.6517C89.2598 46.7774 89.7202 46.6458 90.033 46.3826C90.3515 46.1194 90.5107 45.7503 90.5107 45.2753C90.5107 44.7947 90.3515 44.4227 90.033 44.1595C89.7202 43.8963 89.2598 43.7647 88.6517 43.7647H86.7492L87.0359 43.4643V47.0778Z" fill="white"/>
<path d="M96.719 45.9019H99.9332V46.4427H96.719V45.9019ZM96.7885 48.6743H100.446V49.2236H96.1456V43.2154H100.315V43.7647H96.7885V48.6743Z" fill="white"/>
</svg>
