<svg version="1.1" xmlns="http://www.w3.org/2000/svg" width="53" height="32" viewBox="0 0 53 32">
<path fill="#ffffff" d="M15.034 26.028c0.184 0 0.359 0.024 0.526 0.073s0.33 0.119 0.488 0.211v1.113c-0.117-0.102-0.246-0.189-0.384-0.261s-0.287-0.107-0.445-0.107c-0.18 0-0.32 0.050-0.423 0.15s-0.154 0.239-0.154 0.418c0 0.159 0.043 0.295 0.131 0.411 0.087 0.115 0.194 0.225 0.323 0.33s0.267 0.209 0.419 0.314c0.151 0.105 0.291 0.226 0.419 0.365s0.236 0.3 0.323 0.483c0.087 0.184 0.13 0.407 0.13 0.668 0 0.255-0.035 0.494-0.108 0.713-0.071 0.221-0.178 0.411-0.323 0.573-0.143 0.161-0.319 0.288-0.526 0.38s-0.444 0.138-0.711 0.138c-0.164 0-0.335-0.024-0.515-0.073s-0.337-0.121-0.469-0.218v-1.090c0.133 0.093 0.27 0.167 0.409 0.223 0.137 0.056 0.291 0.084 0.461 0.084 0.184 0 0.34-0.056 0.469-0.169s0.192-0.267 0.192-0.461c0-0.112-0.021-0.207-0.062-0.287-0.040-0.080-0.093-0.151-0.157-0.215s-0.136-0.123-0.215-0.177c-0.080-0.053-0.16-0.108-0.243-0.165-0.163-0.113-0.312-0.225-0.444-0.338-0.134-0.112-0.247-0.236-0.339-0.372s-0.163-0.285-0.211-0.449c-0.049-0.163-0.073-0.35-0.073-0.56 0-0.231 0.033-0.448 0.1-0.653s0.162-0.385 0.288-0.541c0.125-0.156 0.283-0.279 0.473-0.372 0.189-0.092 0.407-0.138 0.653-0.138zM41.429 26.028c0.185 0 0.359 0.024 0.526 0.073s0.329 0.119 0.488 0.211v1.113c-0.118-0.102-0.245-0.189-0.384-0.261s-0.288-0.107-0.445-0.107c-0.181 0-0.32 0.050-0.423 0.15s-0.153 0.239-0.153 0.418c0 0.159 0.043 0.295 0.13 0.411 0.087 0.115 0.194 0.225 0.322 0.33s0.267 0.209 0.418 0.314c0.152 0.105 0.291 0.226 0.42 0.365s0.235 0.3 0.322 0.483c0.087 0.184 0.131 0.407 0.131 0.668 0 0.255-0.036 0.494-0.109 0.713-0.071 0.221-0.179 0.411-0.322 0.573s-0.319 0.288-0.526 0.38c-0.208 0.092-0.445 0.138-0.711 0.138-0.164 0-0.336-0.024-0.516-0.073-0.178-0.048-0.335-0.121-0.469-0.218v-1.090c0.134 0.093 0.269 0.167 0.408 0.223s0.292 0.084 0.462 0.084c0.184 0 0.34-0.056 0.468-0.169s0.192-0.267 0.192-0.461c0-0.112-0.020-0.207-0.061-0.287s-0.095-0.151-0.158-0.215c-0.064-0.064-0.136-0.123-0.215-0.177s-0.16-0.108-0.242-0.165c-0.165-0.113-0.312-0.225-0.446-0.338s-0.246-0.236-0.338-0.372c-0.093-0.137-0.163-0.285-0.211-0.449-0.049-0.163-0.073-0.35-0.073-0.56 0-0.231 0.033-0.448 0.1-0.653s0.162-0.385 0.288-0.541c0.125-0.156 0.283-0.279 0.473-0.372s0.407-0.138 0.654-0.138zM20.138 26.029c0.441 0 0.804 0.126 1.091 0.38s0.492 0.585 0.615 0.994l-1.115 0.43c-0.015-0.071-0.033-0.151-0.053-0.237s-0.052-0.169-0.096-0.243c-0.044-0.074-0.1-0.137-0.169-0.188s-0.158-0.076-0.266-0.076c-0.128-0.005-0.237 0.026-0.331 0.092-0.091 0.066-0.169 0.156-0.234 0.268s-0.115 0.241-0.155 0.384c-0.038 0.143-0.067 0.286-0.087 0.43s-0.034 0.282-0.039 0.414c-0.005 0.134-0.007 0.246-0.007 0.338 0 0.148 0.006 0.333 0.020 0.553s0.047 0.432 0.104 0.636c0.056 0.204 0.144 0.379 0.265 0.522s0.286 0.215 0.496 0.215c0.143 0 0.26-0.042 0.35-0.127s0.159-0.188 0.207-0.31c0.049-0.123 0.081-0.252 0.096-0.388s0.023-0.255 0.023-0.357h-0.731v-1.075h1.876v0.453c0 0.307-0.024 0.63-0.073 0.967s-0.14 0.647-0.273 0.925c-0.134 0.279-0.322 0.51-0.566 0.694s-0.559 0.276-0.948 0.276c-0.262 0-0.494-0.044-0.696-0.13s-0.38-0.204-0.534-0.353c-0.154-0.148-0.283-0.319-0.388-0.514s-0.191-0.401-0.258-0.622c-0.066-0.22-0.115-0.444-0.146-0.672s-0.046-0.449-0.046-0.664c0-0.332 0.030-0.676 0.093-1.032 0.061-0.356 0.17-0.681 0.326-0.975s0.369-0.537 0.635-0.726c0.266-0.189 0.604-0.283 1.015-0.283zM46.978 26.12v1.074h-1.161v1.26h1.023v1.074h-1.023v1.305h1.177v1.075h-2.322v-5.788h2.306zM1.152 26.121c0.184 0 0.394 0.012 0.627 0.037 0.233 0.026 0.455 0.092 0.664 0.2 0.211 0.108 0.387 0.272 0.53 0.495s0.216 0.53 0.216 0.924c0 0.323-0.065 0.614-0.195 0.872s-0.34 0.466-0.627 0.626l1.008 2.633h-1.207l-1.008-2.672h-0.016v2.672h-1.144v-5.787h1.152zM9.638 26.121v2.587h0.015l0.954-2.587h1.168l-1.069 2.671 1.207 3.117h-1.207l-1.054-2.948h-0.015v2.948h-1.145v-5.788h1.145zM24.988 26.121c0.184 0 0.393 0.012 0.627 0.037 0.233 0.026 0.454 0.092 0.664 0.2s0.387 0.272 0.53 0.495c0.144 0.222 0.216 0.53 0.216 0.924 0 0.323-0.066 0.614-0.196 0.872s-0.34 0.466-0.626 0.626l1.007 2.633h-1.206l-1.008-2.672h-0.016v2.672h-1.144v-5.787h1.152zM31.344 26.121l1.391 5.787h-1.222l-0.215-0.975h-1.161l-0.208 0.975h-1.137l1.345-5.787h1.207zM50.015 26.121l1.43 3.492 0.015-0.015c-0.036-0.139-0.061-0.282-0.073-0.431s-0.019-0.296-0.019-0.445v-2.602h1.146v5.787h-1.084l-1.415-3.492-0.016 0.016 0.054 0.583 0.008 0.238v2.656h-1.146v-5.787h1.1zM6.448 26.121v5.787h-1.146v-5.787h1.146zM35.526 26.121l1.43 3.492 0.015-0.015c-0.037-0.139-0.061-0.282-0.073-0.431s-0.020-0.296-0.020-0.445v-2.602h1.146v5.787h-1.083l-1.415-3.492-0.016 0.016 0.054 0.583 0.008 0.238v2.656h-1.146v-5.787h1.1zM30.706 27.609h-0.015l-0.124 0.875-0.244 1.543h0.806l-0.292-1.543-0.13-0.875zM1.381 27.064l-0.083 0.001h-0.154v1.542l0.2 0.008c0.262 0 0.448-0.078 0.562-0.234s0.169-0.354 0.169-0.595c0-0.102-0.013-0.199-0.038-0.292s-0.070-0.171-0.13-0.237c-0.062-0.067-0.142-0.117-0.243-0.151-0.099-0.033-0.222-0.047-0.365-0.041l0.083-0.001zM25.217 27.064l-0.083 0.001h-0.155v1.542l0.2 0.008c0.262 0 0.448-0.078 0.562-0.234s0.169-0.354 0.169-0.595c0-0.102-0.012-0.199-0.038-0.292s-0.070-0.171-0.13-0.237c-0.062-0.067-0.143-0.117-0.243-0.151s-0.222-0.047-0.364-0.041l0.083-0.001zM29.976 24.547c0.159 0 0.292 0.058 0.4 0.172s0.161 0.252 0.161 0.411c0 0.154-0.056 0.285-0.168 0.395-0.113 0.11-0.249 0.165-0.409 0.165-0.153 0-0.286-0.055-0.399-0.165s-0.169-0.242-0.169-0.395c0-0.164 0.056-0.303 0.169-0.415s0.252-0.169 0.415-0.169zM31.576 24.547c0.159 0 0.292 0.058 0.398 0.172 0.109 0.115 0.162 0.252 0.162 0.411 0 0.154-0.056 0.285-0.169 0.395s-0.248 0.165-0.406 0.165c-0.154 0-0.287-0.055-0.401-0.165-0.112-0.111-0.169-0.242-0.169-0.395 0-0.164 0.057-0.303 0.169-0.415 0.113-0.112 0.252-0.169 0.416-0.169zM26.867 0c7.792 0 14.081 6.243 14.125 14.024 0.010 1.805-0.32 3.531-0.928 5.119-0.154 0.406-0.328 0.802-0.518 1.187l-2.039-1.601-1.297 1.052c-0.105 0.086-0.241 0.125-0.377 0.109l-1.931-0.225c-0.009-0.002-0.019-0.002-0.028-0.003-0.101-0.006-0.201 0.018-0.287 0.069-0.006 0.003-0.013 0.008-0.019 0.012l-1.626 1.054c-0.234 0.151-0.549 0.085-0.7-0.151l-0.895-1.388-0.819 0.688 2.133 1.936c0.003 0.003 0.006 0.005 0.009 0.009 0.248 0.234 0.264 0.624 0.034 0.877-0.232 0.256-0.628 0.275-0.885 0.044-0.001 0-0.001 0-0.001-0.001l-0.772-0.7-1.275 0.628c-0.002 0.001-0.004 0.002-0.006 0.003-0.197 0.094-0.43 0.052-0.581-0.105l-0.004-0.004-0.684-0.726c-0.145-0.153-0.369-0.2-0.562-0.119l-1.463 0.608c-0.188 0.078-0.405 0.035-0.551-0.108l-1.358-1.349c-0.146-0.146-0.368-0.187-0.559-0.105l-1.558 0.679c-0.169 0.073-0.365 0.048-0.511-0.063l-1.283-0.989c-0.185-0.144-0.445-0.141-0.628 0.006l-1.244 1.006c-0.214 0.172-0.526 0.143-0.703-0.064-0.004-0.004-0.006-0.007-0.009-0.011l-1.236-1.527-1.334 1.048c-0.207-0.372-0.397-0.755-0.569-1.147-0.762-1.733-1.185-3.65-1.185-5.665 0-7.79 6.324-14.105 14.124-14.105zM22.129 14.925l-5.312 4.17 0.435 0.537c0.002 0.002 0.005 0.005 0.006 0.007 0.176 0.209 0.487 0.241 0.701 0.071 0.001-0.001 0.002-0.002 0.004-0.003l1.040-0.841c0.181-0.147 0.441-0.15 0.627-0.007l1.479 1.143c0.147 0.112 0.343 0.137 0.512 0.063l1.66-0.722c0.19-0.083 0.411-0.041 0.558 0.105l1.369 1.359c0.145 0.144 0.362 0.186 0.551 0.108l1.49-0.62c0.193-0.080 0.416-0.033 0.56 0.118l0.002 0.002 0.643 0.682c0.002 0.002 0.003 0.004 0.005 0.005 0.153 0.157 0.389 0.198 0.586 0.101l-6.918-6.279zM34.134 16.078l-2.818 2.367 0.3 0.466c0.151 0.235 0.465 0.303 0.7 0.15l0.949-0.615c0.005-0.002 0.010-0.006 0.014-0.009 0.088-0.053 0.19-0.077 0.291-0.072l0.030 0.002 1.854 0.218c0.135 0.016 0.271-0.024 0.377-0.109l0.666-0.54-2.364-1.857zM26.867 10.245c-2.104 0-3.821 1.688-3.864 3.779l4.313 3.915c1.922-0.222 3.418-1.856 3.418-3.834 0-2.129-1.735-3.86-3.866-3.86zM21.933 13.479h-2.478c-0.346 0-0.628 0.281-0.628 0.626s0.282 0.626 0.628 0.626h0.89l1.588-1.246v-0.007zM34.28 13.479h-1.85c-0.347 0-0.627 0.281-0.627 0.626s0.28 0.626 0.627 0.626h1.85c0.173 0 0.33-0.070 0.444-0.183s0.184-0.271 0.184-0.443c0-0.346-0.28-0.626-0.627-0.626zM32.552 8.428c-0.245-0.245-0.643-0.245-0.887 0l-1.31 1.307c-0.244 0.245-0.244 0.641 0 0.886 0.246 0.245 0.643 0.245 0.888 0.001l1.309-1.308c0.244-0.244 0.244-0.64 0-0.885l-0.001-0.001zM22.070 8.429c-0.245-0.246-0.642-0.246-0.887-0.001s-0.244 0.641-0.001 0.885l1.309 1.307c0.122 0.122 0.284 0.183 0.444 0.183s0.32-0.061 0.444-0.183c0.244-0.245 0.244-0.641 0-0.886l-1.308-1.306zM26.867 6.077c-0.346 0-0.627 0.28-0.627 0.626v1.847c0 0.174 0.071 0.33 0.184 0.443s0.27 0.184 0.443 0.184c0.347 0 0.627-0.281 0.627-0.627v-1.847c0-0.346-0.28-0.626-0.627-0.626z"></path>
</svg>
