<svg width="128" height="44" viewBox="0 0 128 44" fill="none" xmlns="http://www.w3.org/2000/svg">
<path d="M93.0464 39.2533L109.049 39.168L125.01 39.04L125.137 20.7787L125.222 2.56H2.44755L2.53222 20.7787L2.65922 39.04L18.6622 39.168L34.6228 39.2533V41.8133H0.33075V0H127.339V41.8133H93.0464V39.2533Z" fill="white"/>
<path d="M17.3498 11.52C19.0432 12.032 21.0753 14.1227 21.0753 15.4027C21.0753 16.64 17.3498 16.5973 16.2914 15.3173C15.4023 14.336 13.9629 14.3787 13.2855 15.4453C12.7352 16.3413 13.8359 17.7067 15.4447 18.1333C21.0753 19.5413 23.1498 23.3813 20.0593 26.752C18.7469 28.2027 18.4082 28.3307 15.9104 28.5013C12.6082 28.7147 10.3644 27.8187 9.43297 25.984C8.33224 23.8933 8.58625 23.4667 10.8301 23.4667C12.3541 23.4667 12.9469 23.68 13.3702 24.32C13.9629 25.344 16.0797 25.472 16.7994 24.576C17.7308 23.4667 16.6301 22.3147 13.7089 21.3333C10.1103 20.1387 8.79793 18.816 8.79793 16.384C8.79793 12.5013 12.7352 10.24 17.3498 11.52Z" fill="white"/>
<path d="M29.0768 11.52L29.3308 18.1333L35.4696 18.3893V11.52H39.7031V28.5867H35.4696V21.76H29.1192V28.5867H24.8856V11.52H29.0768Z" fill="white"/>
<path fill-rule="evenodd" clip-rule="evenodd" d="M54.0127 11.6053C58.2039 12.672 61.0404 17.408 60.0667 21.7173C59.1353 25.984 55.9178 28.5867 51.5572 28.5867C48.4243 28.5867 45.8419 27.264 44.3601 24.8747C41.9469 21.0773 42.3703 16.9387 45.4185 13.824C47.874 11.392 50.4565 10.7093 54.0127 11.6053ZM47.2813 19.2C47.4506 17.3227 47.9163 16.5547 49.1441 15.7867C49.8638 15.3173 50.9645 14.9333 51.5572 14.9333C53.039 14.9333 55.2828 16.4267 55.5791 17.5787C56.2142 20.352 55.9601 21.888 54.6901 23.424C53.7587 24.576 53.3353 24.7467 51.5572 24.7467C49.7791 24.7467 49.3557 24.576 48.4243 23.424C47.4506 22.2293 47.1119 21.0347 47.2813 19.2Z" fill="white"/>
<path fill-rule="evenodd" clip-rule="evenodd" d="M75.1806 12.928C77.5091 14.464 78.6522 16.768 78.6522 19.968C78.6522 23.5947 77.3398 25.856 74.4609 27.392C72.4288 28.4587 71.7938 28.5867 67.8142 28.5867H63.4113V11.4347L68.4069 11.6053C73.0638 11.7333 73.5719 11.8187 75.1806 12.928ZM69.804 24.7467H67.6448V14.8053L69.8463 15.0187C72.8945 15.3173 74.4186 17.024 74.4186 20.096C74.4186 21.9307 74.2069 22.4427 73.1909 23.5093C72.1325 24.5333 71.6244 24.7467 69.804 24.7467Z" fill="white"/>
<path d="M86.6537 16.7253C87.204 19.6267 87.7967 22.2293 87.9238 22.4853C88.0931 22.784 88.8551 20.4373 89.6172 17.28L91.0143 11.4773L95.7559 11.7333L97.026 17.3653C97.7034 20.48 98.4231 22.912 98.5501 22.784C98.6771 22.656 99.2274 20.1387 99.8201 17.152L100.921 11.7333L103.122 11.6053C104.35 11.52 105.324 11.6053 105.324 11.776C105.324 12.0747 104.308 16.0853 101.471 26.9653L101.048 28.5867H96.0522L95.6289 26.9653C95.4172 26.112 94.8245 23.7653 94.3165 21.76C93.8084 19.7547 93.3428 18.0907 93.2581 18.0053C93.2157 17.9627 92.7501 19.584 92.242 21.632C91.734 23.68 91.1413 26.112 90.8873 26.9653L90.4639 28.5867H85.4683L85.0449 26.9653C84.7909 26.112 83.9442 22.6133 83.0975 19.2C82.2507 15.7867 81.4887 12.672 81.3617 12.2453C81.15 11.6053 81.4464 11.52 83.3938 11.52H85.68L86.6537 16.7253Z" fill="white"/>
<path d="M118.871 11.52V14.9333H112.521V18.3467H118.025V21.3333H112.521V25.1733H118.871V28.5867H108.287V11.52H118.871Z" fill="white"/>
<path d="M41.591 43.0556C41.223 43.0556 40.8924 42.9916 40.599 42.8636C40.311 42.7302 40.0844 42.5489 39.919 42.3196C39.7537 42.0849 39.6684 41.8156 39.663 41.5116H40.439C40.4657 41.7729 40.5724 41.9942 40.759 42.1756C40.951 42.3516 41.2284 42.4396 41.591 42.4396C41.9377 42.4396 42.2097 42.3542 42.407 42.1836C42.6097 42.0076 42.711 41.7836 42.711 41.5116C42.711 41.2982 42.6524 41.1249 42.535 40.9916C42.4177 40.8582 42.271 40.7569 42.095 40.6876C41.919 40.6182 41.6817 40.5436 41.383 40.4636C41.015 40.3676 40.719 40.2716 40.495 40.1756C40.2764 40.0796 40.087 39.9302 39.927 39.7276C39.7724 39.5196 39.695 39.2422 39.695 38.8956C39.695 38.5916 39.7724 38.3222 39.927 38.0876C40.0817 37.8529 40.2977 37.6716 40.575 37.5436C40.8577 37.4156 41.1804 37.3516 41.543 37.3516C42.0657 37.3516 42.4924 37.4822 42.823 37.7436C43.159 38.0049 43.3484 38.3516 43.391 38.7836H42.591C42.5644 38.5702 42.4524 38.3836 42.255 38.2236C42.0577 38.0582 41.7964 37.9756 41.471 37.9756C41.167 37.9756 40.919 38.0556 40.727 38.2156C40.535 38.3702 40.439 38.5889 40.439 38.8716C40.439 39.0742 40.495 39.2396 40.607 39.3676C40.7244 39.4956 40.8657 39.5942 41.031 39.6636C41.2017 39.7276 41.439 39.8022 41.743 39.8876C42.111 39.9889 42.407 40.0902 42.631 40.1916C42.855 40.2876 43.047 40.4396 43.207 40.6476C43.367 40.8502 43.447 41.1276 43.447 41.4796C43.447 41.7516 43.375 42.0076 43.231 42.2476C43.087 42.4876 42.8737 42.6822 42.591 42.8316C42.3084 42.9809 41.975 43.0556 41.591 43.0556Z" fill="white"/>
<path d="M47.9503 37.4236V38.0156H46.4303V42.9996H45.7023V38.0156H44.1743V37.4236H47.9503Z" fill="white"/>
<path d="M51.7825 42.9996L50.4545 40.7196H49.5745V42.9996H48.8465V37.4236H50.6465C51.0678 37.4236 51.4225 37.4956 51.7105 37.6396C52.0038 37.7836 52.2225 37.9782 52.3665 38.2236C52.5105 38.4689 52.5825 38.7489 52.5825 39.0636C52.5825 39.4476 52.4705 39.7862 52.2465 40.0796C52.0278 40.3729 51.6971 40.5676 51.2545 40.6636L52.6545 42.9996H51.7825ZM49.5745 40.1356H50.6465C51.0411 40.1356 51.3371 40.0396 51.5345 39.8476C51.7318 39.6502 51.8305 39.3889 51.8305 39.0636C51.8305 38.7329 51.7318 38.4769 51.5345 38.2956C51.3425 38.1142 51.0465 38.0236 50.6465 38.0236H49.5745V40.1356Z" fill="white"/>
<path d="M54.4417 38.0156V39.8796H56.4736V40.4796H54.4417V42.3996H56.7136V42.9996H53.7136V37.4156H56.7136V38.0156H54.4417Z" fill="white"/>
<path d="M58.5432 38.0156V39.8796H60.5752V40.4796H58.5432V42.3996H60.8152V42.9996H57.8152V37.4156H60.8152V38.0156H58.5432Z" fill="white"/>
<path d="M65.3488 37.4236V38.0156H63.8288V42.9996H63.1008V38.0156H61.5728V37.4236H65.3488Z" fill="white"/>
<path d="M73.2529 37.4236L71.6369 42.9996H70.8209L69.5249 38.5116L68.1809 42.9996L67.3729 43.0076L65.8129 37.4236H66.5889L67.8049 42.1516L69.1489 37.4236H69.9649L71.2449 42.1356L72.4689 37.4236H73.2529Z" fill="white"/>
<path d="M74.7776 38.0156V39.8796H76.8096V40.4796H74.7776V42.3996H77.0496V42.9996H74.0496V37.4156H77.0496V38.0156H74.7776Z" fill="white"/>
<path d="M81.4472 41.7596H79.0151L78.5672 42.9996H77.7991L79.8152 37.4556H80.6552L82.6632 42.9996H81.8951L81.4472 41.7596ZM81.2392 41.1676L80.2312 38.3516L79.2231 41.1676H81.2392Z" fill="white"/>
<path d="M86.4778 42.9996L85.1498 40.7196H84.2698V42.9996H83.5418V37.4236H85.3418C85.7631 37.4236 86.1178 37.4956 86.4058 37.6396C86.6991 37.7836 86.9178 37.9782 87.0618 38.2236C87.2058 38.4689 87.2778 38.7489 87.2778 39.0636C87.2778 39.4476 87.1658 39.7862 86.9418 40.0796C86.7231 40.3729 86.3924 40.5676 85.9498 40.6636L87.3498 42.9996H86.4778ZM84.2698 40.1356H85.3418C85.7364 40.1356 86.0324 40.0396 86.2298 39.8476C86.4271 39.6502 86.5258 39.3889 86.5258 39.0636C86.5258 38.7329 86.4271 38.4769 86.2298 38.2956C86.0378 38.1142 85.7418 38.0236 85.3418 38.0236H84.2698V40.1356Z" fill="white"/>
</svg>
