<svg version="1.1" xmlns="http://www.w3.org/2000/svg" width="128" height="32" viewBox="0 0 128 32">
<path fill="#ffffff" d="M9.596 16.817v3.262h-5.471c-0.134 0-0.224 0.113-0.224 0.248v2.226c0 0.090 0.089 0.203 0.224 0.203h3.901c1.053 0 1.771 0.72 1.771 1.777v5.69c0 1.058-0.718 1.778-1.771 1.778h-8.026v-3.285h5.673c0.157 0 0.246-0.089 0.246-0.202v-2.204c0-0.113-0.089-0.203-0.246-0.203h-3.901c-1.053 0-1.771-0.72-1.771-1.777v-5.736c0-1.057 0.718-1.777 1.771-1.777h7.825zM23.049 16.817v3.284h-3.431v11.898h-3.901v-11.898h-3.43v-3.284h10.762zM35.357 16.817c1.053 0 1.771 0.72 1.771 1.777v11.628c0 1.058-0.718 1.778-1.771 1.778h-7.78c-1.054 0-1.771-0.72-1.771-1.778v-11.628c0-1.057 0.717-1.777 1.771-1.777h7.78zM50.491 16.817c0.965 0 1.772 0.788 1.772 1.71v3.914h-3.901v-2.115c0-0.135-0.113-0.247-0.202-0.247h-2.847c-0.135 0-0.247 0.112-0.247 0.247v8.166c0 0.135 0.112 0.224 0.247 0.224h2.847c0.089 0 0.202-0.090 0.202-0.224v-2.16h3.901v3.936c0 0.99-0.807 1.732-1.772 1.732h-7.6c-0.964 0-1.727-0.742-1.727-1.732v-11.74c0-0.922 0.763-1.71 1.727-1.71h7.6zM55.119 0c0.287 0 0.568 0.029 0.844 0.079v-0.004l0.060 0.014c0.030 0.006 0.060 0.014 0.090 0.020 0.105 0.022 0.208 0.048 0.311 0.078 0.047 0.014 0.093 0.027 0.141 0.042 0.089 0.029 0.176 0.061 0.264 0.095 0.045 0.018 0.091 0.034 0.137 0.053 0.119 0.051 0.236 0.106 0.351 0.167 0.050 0.026 0.097 0.056 0.146 0.084 0.070 0.040 0.141 0.082 0.208 0.126 0.055 0.035 0.108 0.073 0.162 0.11 0.061 0.043 0.12 0.088 0.179 0.135 0.053 0.040 0.105 0.081 0.155 0.123 0.065 0.055 0.126 0.113 0.188 0.172 0.036 0.034 0.074 0.064 0.109 0.1 0.923 0.925 1.385 2.14 1.385 3.356h0.004l0.012 18.389 3.924-6.32h4.349l-4.372 6.59 4.552 8.592h-4.26l-2.96-5.803-1.233 2.002v3.801h-3.901v-27.251c-0.001-0.216-0.084-0.434-0.248-0.599-0.215-0.216-0.466-0.248-0.596-0.248-0.133 0-0.381 0.031-0.597 0.248l-0.71 0.715-2.751 2.757-3.462-3.472c-0.215-0.216-0.466-0.248-0.596-0.248s-0.38 0.031-0.596 0.248c-0.329 0.33-0.329 0.868 0 1.196l4.654 4.669 3.606-3.615v5.516l-3.606 3.618-7.406-7.428c-1.843-1.852-1.843-4.864 0-6.713 0.895-0.898 2.082-1.392 3.347-1.392 1.263 0 2.453 0.494 3.349 1.392l0.71 0.712 0.71-0.712c0.895-0.898 2.082-1.392 3.348-1.392zM74.795 16.817v5.803h3.7v-5.803h3.901v15.182h-3.901v-6.028h-3.7v6.028h-3.901v-15.182h3.901zM96.118 16.817c1.053 0 1.771 0.72 1.771 1.777v11.628c0 1.058-0.718 1.778-1.771 1.778h-7.779c-1.054 0-1.771-0.72-1.771-1.778v-11.628c0-1.057 0.717-1.777 1.771-1.777h7.779zM105.939 16.817v11.898h4.82v3.284h-8.699v-15.182h3.879zM118.023 16.817l3.049 7.085 2.803-7.085h4.125v15.182h-3.677v-8.75l-2.556 6.028h-1.525l-2.577-5.87v8.592h-3.588v-15.182h3.946zM32.98 20.101h-3.071c-0.090 0-0.202 0.113-0.202 0.248v8.165c0 0.113 0.112 0.202 0.202 0.202h3.071c0.134 0 0.247-0.089 0.247-0.202v-8.165c0-0.135-0.113-0.248-0.247-0.248zM93.741 20.101h-3.071c-0.090 0-0.201 0.113-0.201 0.248v8.165c0 0.113 0.112 0.202 0.201 0.202h3.071c0.134 0 0.247-0.089 0.247-0.202v-8.165c0-0.135-0.113-0.248-0.247-0.248z"></path>
</svg>
