<svg width="128" height="64" viewBox="0 0 128 64" fill="none" xmlns="http://www.w3.org/2000/svg">
<path d="M102.562 1.73267C101.922 2.23991 100.961 3.39273 100.412 4.26887C99.4966 5.74448 99.4509 6.29784 99.7254 9.80241C100.046 13.4914 99.9999 13.8142 98.673 16.7193C96.9343 20.4545 93.5942 24.8813 91.6267 26.0802C90.3913 26.8181 89.2474 27.0025 85.4497 27.0486C78.6321 27.0947 74.6972 28.847 71.5401 33.2277C68.0627 38.0696 71.6773 43.2803 77.7628 42.1275C80.2336 41.6203 86.4106 38.3463 90.3455 35.3489C94.4635 32.2133 98.1239 28.3398 101.19 23.7746L103.34 20.6389L104.301 21.5612C106.451 23.5902 110.02 21.884 110.02 18.7944C110.02 17.3649 108.327 15.5665 106.863 15.4282C105.674 15.336 105.674 15.5204 106.817 9.15683C107.87 3.43884 107.733 2.70104 105.445 1.5021C103.798 0.625958 103.981 0.625958 102.562 1.73267Z" fill="white"/>
<path d="M14.7576 3.62327C8.58065 6.06725 2.35792 12.1541 0.84799 17.2266C-0.0671179 20.27 0.664968 22.0223 4.41691 25.8497C7.94007 29.4465 9.35849 31.8443 9.35849 34.0116C9.35849 35.4411 9.17547 35.6256 5.56079 38.7613C4.18813 39.9141 3.77633 40.6519 3.54756 42.1275C3.22727 44.7559 4.41691 46.001 7.2995 46.001C14.3458 46.001 19.1501 37.0551 15.81 30.1382C15.1694 28.8931 12.9732 26.0341 10.8684 23.8207C8.76367 21.5612 7.07072 19.3939 7.07072 18.9327C7.07072 16.4888 10.6396 13.3531 17.9147 9.52572C22.353 7.17396 22.6276 6.9434 22.6276 5.60613C22.6276 4.22274 20.2483 2.6549 18.2808 2.70102C17.5487 2.74713 15.9473 3.11603 14.7576 3.62327Z" fill="white"/>
<path d="M31.0465 10.2639C30.4517 11.2323 30.3602 12.0623 30.6805 15.8897C30.9092 18.3798 31.0465 20.8237 30.955 21.331C30.772 22.8066 29.1248 23.8672 27.02 23.8672C22.0785 23.8672 19.8822 25.0661 19.8822 27.7407C19.8822 30.738 23.1308 32.3981 27.5691 31.7064C28.9875 31.4297 30.5432 31.3836 30.955 31.5219C31.9159 31.7986 32.3734 33.8737 31.9616 36.041C31.5956 38.1622 32.4649 40.3756 33.8376 40.7445C37.0862 41.5745 38.7334 39.6839 38.8249 35.1187C38.8707 33.3664 39.0537 31.7064 39.2367 31.3836C39.4198 31.1069 40.6551 30.5074 41.9821 30.1385C43.4005 29.7235 44.9104 28.8474 45.6882 28.0635L46.9694 26.7262L45.917 26.0345C45.3222 25.6195 43.6292 24.8817 42.2108 24.3283C39.3282 23.2677 39.3282 23.2677 38.9164 18.5642C38.5504 14.4602 37.8641 12.5695 36.1711 10.725C34.2494 8.69606 32.1904 8.51161 31.0465 10.2639Z" fill="white"/>
<path d="M51.3162 24.6969C49.7148 26.4953 49.0284 34.8878 50.2638 37.8391C51.0417 39.8219 53.3752 41.7587 55.3427 42.1276C59.0488 42.8193 62.6178 39.8219 65.6834 33.4583C67.7881 29.0315 67.8796 28.1093 66.324 26.4492C65.4546 25.4808 64.814 25.2041 63.6701 25.3425C62.2975 25.4808 62.0687 25.8036 60.2385 29.4926C58.7743 32.5361 58.088 33.5506 57.4017 33.5506C56.3493 33.5506 56.1663 32.075 56.9441 29.4465C57.4474 27.602 56.6238 25.158 55.2054 24.3741C53.8327 23.6363 52.1398 23.7746 51.3162 24.6969Z" fill="white"/>
<path d="M118.988 29.4007C115.008 30.5997 113.178 36.3638 115.74 39.4995C119.675 44.1569 127.59 41.0212 127.499 34.7959C127.453 30.5997 123.472 28.0635 118.988 29.4007Z" fill="white"/>
<path d="M103.981 33.0894C101.281 34.7034 103.889 42.312 107.138 42.312C108.831 42.312 110.478 40.3292 110.478 38.3924C110.478 34.3345 106.863 31.3833 103.981 33.0894Z" fill="white"/>
<path d="M23.9422 60.0456C23.9265 60.3356 23.8677 60.5982 23.7658 60.8334C23.6717 61.0686 23.5659 61.2998 23.4483 61.5272C23.3385 61.7467 23.2484 61.9897 23.1778 62.2562C23.0994 62.2405 23.0132 62.2876 22.9191 62.3973C22.8329 62.5071 22.7545 62.6207 22.684 62.7383C22.3547 62.9108 22.0059 63.0911 21.6374 63.2792C21.269 63.4674 20.8653 63.5614 20.4263 63.5614C20.0186 63.5614 19.6424 63.4752 19.2974 63.3027C18.9604 63.1224 18.6311 62.9539 18.3097 62.7971C18.3097 62.6874 18.2666 62.6168 18.1804 62.5855C18.102 62.5541 18.0353 62.511 17.9805 62.4561C17.6747 62.1112 17.42 61.7075 17.2161 61.245C17.0123 60.7746 16.8947 60.2455 16.8634 59.6575C16.8399 59.1088 16.8987 58.5796 17.0398 58.0701C17.1652 57.6154 17.3494 57.2078 17.5924 56.8472C17.8433 56.4866 18.149 56.224 18.5096 56.0593C18.635 55.9261 18.7801 55.8046 18.9447 55.6948C19.1171 55.5772 19.3249 55.5498 19.5679 55.6125L19.6149 55.5302C19.8266 55.4832 20.0814 55.4636 20.3793 55.4714C20.6771 55.4714 20.9789 55.5028 21.2847 55.5655C21.5904 55.6204 21.8648 55.7144 22.1078 55.8477C22.3586 55.9731 22.535 56.1417 22.6369 56.3533C22.684 56.3612 22.7232 56.3612 22.7545 56.3533C22.7937 56.3455 22.829 56.3416 22.8604 56.3416C22.8917 56.3337 22.9231 56.3298 22.9544 56.3298C22.9858 56.322 23.025 56.3298 23.072 56.3533C23.0642 56.4474 23.0603 56.5375 23.0603 56.6238C23.0681 56.7022 23.0838 56.7727 23.1073 56.8354C23.2484 56.9138 23.3542 57.0275 23.4248 57.1764C23.4953 57.3175 23.5541 57.4704 23.6012 57.635C23.6482 57.7918 23.6991 57.9407 23.754 58.0819C23.7697 58.1132 23.7854 58.1446 23.8011 58.1759C23.8167 58.2073 23.8324 58.2386 23.8481 58.27C23.8559 58.3641 23.8638 58.4581 23.8716 58.5522C23.8794 58.6384 23.8873 58.7286 23.8951 58.8227C23.9108 59.0343 23.9265 59.246 23.9422 59.4576C23.9578 59.6693 23.9578 59.8653 23.9422 60.0456ZM22.8368 58.0819C22.829 58.0427 22.8212 58.0074 22.8133 57.976C22.8055 57.9447 22.7976 57.9133 22.7898 57.882C22.7663 57.7565 22.7114 57.5997 22.6252 57.4116C22.5468 57.2235 22.4606 57.0432 22.3665 56.8707C22.2724 56.6904 22.1901 56.565 22.1195 56.4944C21.9392 56.2906 21.708 56.1534 21.4258 56.0829C21.1514 56.0123 20.8574 55.9888 20.5439 56.0123C20.2303 56.028 19.9285 56.0868 19.6384 56.1887C19.3484 56.2828 19.1015 56.4003 18.8976 56.5415C18.7173 56.7374 18.5606 56.9687 18.4273 57.2352C18.3019 57.4939 18.2 57.7722 18.1216 58.0701C18.0667 58.2818 18.0236 58.5013 17.9922 58.7286C17.9609 58.9559 17.9452 59.1833 17.9452 59.4106C17.9373 59.9123 17.9961 60.4062 18.1216 60.8922C18.2548 61.3704 18.4547 61.7819 18.7213 62.1269C18.9329 62.4012 19.1877 62.6168 19.4856 62.7736C19.7913 62.9304 20.1362 63.0009 20.5204 62.9853C20.9829 62.9696 21.3827 62.8246 21.7198 62.5502C22.0568 62.2758 22.3234 61.9231 22.5193 61.4919C22.7467 61.0137 22.8878 60.4767 22.9427 59.8809C22.9975 59.2773 22.9623 58.6776 22.8368 58.0819Z" fill="white"/>
<path d="M31.5339 60.9863C31.6672 61.3469 31.7221 61.7428 31.6985 62.1739C31.675 62.5972 31.5966 62.9813 31.4634 63.3263C31.1106 63.3811 30.703 63.4047 30.2405 63.3968C29.7779 63.389 29.2998 63.3694 28.8059 63.338C28.359 63.3145 27.9161 63.2988 27.4771 63.291C27.0381 63.2753 26.6383 63.2871 26.2777 63.3263C26.2072 63.1616 26.215 63.0323 26.3013 62.9382C26.3953 62.8363 26.5247 62.7579 26.6893 62.7031C26.8539 62.6403 27.0068 62.5933 27.1479 62.5619C27.1871 61.9583 27.2028 61.2998 27.1949 60.5865C27.1949 59.8653 27.1871 59.1519 27.1714 58.4464C27.1714 58.3837 27.1714 58.3209 27.1714 58.2582C27.1714 58.1955 27.1714 58.1328 27.1714 58.0701C27.1636 57.7487 27.1557 57.439 27.1479 57.1412C27.1479 56.8354 27.1479 56.5454 27.1479 56.271C27.046 56.224 26.9519 56.2083 26.8657 56.224C26.7795 56.2396 26.6932 56.2592 26.607 56.2828C26.5443 56.3063 26.4776 56.3259 26.4071 56.3416C26.3444 56.3494 26.2817 56.3416 26.219 56.318C26.2111 56.3024 26.2033 56.2867 26.1954 56.271C26.1876 56.2553 26.1719 56.2436 26.1484 56.2357C26.1014 56.1652 26.0857 56.1064 26.1014 56.0593C26.1249 56.0045 26.1523 55.9496 26.1837 55.8947C26.215 55.8555 26.2425 55.8124 26.266 55.7654C26.2895 55.7105 26.2934 55.6478 26.2777 55.5772C26.4502 55.6556 26.6501 55.6987 26.8774 55.7066C27.1048 55.7066 27.336 55.6987 27.5712 55.6831C27.6574 55.6752 27.7437 55.6713 27.8299 55.6713C27.9161 55.6635 28.0024 55.6595 28.0886 55.6595C28.3159 55.6595 28.5158 55.6909 28.6883 55.7536C28.8608 55.8085 28.9744 55.9378 29.0293 56.1417C28.9744 56.1965 28.9117 56.2279 28.8412 56.2357C28.7784 56.2436 28.7079 56.2475 28.6295 56.2475C28.5354 56.2475 28.4414 56.2553 28.3473 56.271C28.2532 56.2867 28.1709 56.3494 28.1004 56.4591C28.0768 56.9609 28.0651 57.4978 28.0651 58.0701C28.0651 58.2269 28.0651 58.3915 28.0651 58.564C28.0651 58.7286 28.0651 58.8932 28.0651 59.0578C28.0729 59.6379 28.0729 60.2376 28.0651 60.8569C28.0651 61.4762 28.0494 62.1034 28.018 62.7383C28.1513 62.7854 28.2767 62.8089 28.3943 62.8089C28.5198 62.801 28.6452 62.7893 28.7706 62.7736C28.8255 62.7658 28.8804 62.7579 28.9352 62.7501C28.9979 62.7422 29.0567 62.7383 29.1116 62.7383C29.19 62.7383 29.2684 62.7422 29.3468 62.7501C29.433 62.7579 29.5192 62.7658 29.6055 62.7736C29.7309 62.7893 29.8563 62.801 29.9818 62.8089C30.1072 62.8167 30.2287 62.805 30.3463 62.7736C30.5658 62.7109 30.7108 62.5933 30.7814 62.4208C30.8519 62.2405 30.9146 62.0485 30.9695 61.8447C31.0165 61.6644 31.0753 61.4919 31.1459 61.3273C31.2243 61.1627 31.3536 61.049 31.5339 60.9863Z" fill="white"/>
<path d="M36.5888 56.0358C36.5496 56.1534 36.4555 56.22 36.3066 56.2357C36.1655 56.2514 36.0166 56.2553 35.8598 56.2475C35.8127 56.2475 35.7657 56.2475 35.7187 56.2475C35.6716 56.2475 35.6246 56.2475 35.5776 56.2475C35.5462 56.271 35.554 56.3298 35.6011 56.4239C35.6168 56.4552 35.6285 56.4905 35.6364 56.5297C35.652 56.5611 35.6599 56.5924 35.6599 56.6238C35.6285 56.6551 35.605 56.6943 35.5893 56.7414C35.5736 56.7805 35.558 56.8315 35.5423 56.8942C35.5344 57.0902 35.5305 57.2862 35.5305 57.4822C35.5305 57.6703 35.5266 57.8663 35.5188 58.0701C35.5109 58.8227 35.5031 59.5831 35.4952 60.3513C35.4952 61.1195 35.4952 61.8839 35.4952 62.6443C35.6755 62.6521 35.8715 62.6952 36.0832 62.7736C36.2948 62.852 36.4477 62.9735 36.5418 63.1381C36.3458 63.2557 36.1185 63.3184 35.8598 63.3263C35.6089 63.3341 35.3463 63.3302 35.0719 63.3145C34.9073 63.3067 34.7427 63.3027 34.5781 63.3027C34.4213 63.2949 34.2684 63.3028 34.1195 63.3263C34.0724 63.3341 34.0372 63.3537 34.0136 63.3851C33.9901 63.4086 33.9666 63.436 33.9431 63.4674C33.9196 63.5144 33.8882 63.5536 33.849 63.585C33.8098 63.6242 33.7471 63.632 33.6609 63.6085C33.5825 63.4987 33.5511 63.389 33.5668 63.2792C33.5903 63.1695 33.6334 63.0676 33.6962 62.9735C33.7667 62.8716 33.8294 62.7893 33.8843 62.7266C33.9235 62.7266 33.9627 62.7266 34.0019 62.7266C34.0489 62.7266 34.096 62.7266 34.143 62.7266C34.2371 62.7266 34.3311 62.7266 34.4252 62.7266C34.5193 62.7266 34.6016 62.7109 34.6721 62.6795C34.6643 61.974 34.6604 61.2254 34.6604 60.4336C34.6604 59.634 34.6525 58.8462 34.6369 58.0701C34.629 57.4586 34.6055 56.8707 34.5663 56.3063C34.5114 56.2906 34.4526 56.2828 34.3899 56.2828C34.3272 56.2749 34.2606 56.271 34.19 56.271C34.0803 56.271 33.9744 56.2671 33.8725 56.2592C33.7706 56.2514 33.6805 56.2161 33.6021 56.1534C33.5864 56.0907 33.5864 56.0437 33.6021 56.0123C33.6256 55.981 33.6491 55.9496 33.6726 55.9182C33.6962 55.8947 33.7158 55.8712 33.7314 55.8477C33.7471 55.8163 33.7549 55.7811 33.7549 55.7419C33.998 55.7419 34.2567 55.7301 34.531 55.7066C34.8132 55.6831 35.0876 55.6713 35.3541 55.6713C35.6207 55.6713 35.8637 55.6948 36.0832 55.7419C36.3027 55.7889 36.4712 55.8869 36.5888 56.0358Z" fill="white"/>
<path d="M46.0044 56.0241C45.8319 56.1965 45.632 56.3455 45.4047 56.4709C45.1852 56.5963 44.997 56.757 44.8403 56.953C44.7932 57.149 44.7462 57.3411 44.6992 57.5292C44.6521 57.7173 44.6012 57.9016 44.5463 58.0819C44.3033 58.9206 44.0289 59.732 43.7232 60.5159C43.4253 61.2998 43.1548 62.1308 42.9118 63.0088C42.8334 63.0872 42.7668 63.1773 42.7119 63.2792C42.6649 63.3733 42.6061 63.4635 42.5355 63.5497C42.4493 63.5967 42.367 63.6124 42.2886 63.5967C42.2102 63.581 42.1357 63.5614 42.0652 63.5379C42.0025 63.5222 41.9594 63.5105 41.9358 63.5026C41.5988 62.6639 41.2891 61.7741 41.0069 60.8334C40.7325 59.8927 40.4464 58.9716 40.1485 58.0701C40.0466 57.7565 39.9408 57.4508 39.831 57.1529C39.7213 56.855 39.6037 56.5611 39.4783 56.271C39.4077 56.2475 39.3372 56.2396 39.2666 56.2475C39.2039 56.2553 39.1412 56.2632 39.0785 56.271C39.0079 56.2867 38.9413 56.2984 38.8786 56.3063C38.8158 56.3063 38.7531 56.2945 38.6904 56.271C38.6355 56.1848 38.6199 56.1103 38.6434 56.0476C38.6669 55.977 38.6943 55.9104 38.7257 55.8477C38.7414 55.8242 38.7531 55.8046 38.761 55.7889C38.7767 55.7654 38.7884 55.7419 38.7962 55.7183C38.953 55.7262 39.1098 55.7262 39.2666 55.7183C39.4234 55.7105 39.5802 55.7027 39.737 55.6948C39.8545 55.6791 39.9721 55.6713 40.0897 55.6713C40.2151 55.6635 40.3327 55.6595 40.4425 55.6595C40.6541 55.6674 40.8501 55.6987 41.0304 55.7536C41.2186 55.8085 41.3793 55.9182 41.5125 56.0829C41.3714 56.1534 41.2107 56.22 41.0304 56.2828C40.858 56.3455 40.7168 56.3847 40.6071 56.4003C40.6698 56.6747 40.7364 56.953 40.807 57.2352C40.8854 57.5096 40.9677 57.7879 41.0539 58.0701C41.2656 58.7521 41.4968 59.438 41.7477 60.1279C41.9986 60.8177 42.2102 61.5115 42.3827 62.2092C42.657 61.5507 42.9314 60.8844 43.2058 60.2102C43.488 59.5282 43.7389 58.8187 43.9584 58.0819C44.1151 57.5566 44.2445 57.0236 44.3464 56.4827C44.2915 56.3964 44.2092 56.3376 44.0995 56.3063C43.9897 56.2671 43.876 56.2318 43.7585 56.2005C43.6409 56.1691 43.5429 56.1221 43.4645 56.0593C43.4802 55.9418 43.5546 55.8555 43.6879 55.8007C43.8212 55.7379 43.9858 55.6987 44.1818 55.6831C44.3777 55.6674 44.5776 55.6635 44.7815 55.6713C44.9931 55.6791 45.1813 55.6909 45.3459 55.7066C45.487 55.7223 45.6163 55.7615 45.7339 55.8242C45.8594 55.879 45.9495 55.9457 46.0044 56.0241Z" fill="white"/>
<path d="M51.161 56.0358C51.1218 56.1534 51.0277 56.22 50.8788 56.2357C50.7377 56.2514 50.5887 56.2553 50.4319 56.2475C50.3849 56.2475 50.3379 56.2475 50.2908 56.2475C50.2438 56.2475 50.1967 56.2475 50.1497 56.2475C50.1184 56.271 50.1262 56.3298 50.1732 56.4239C50.1889 56.4552 50.2007 56.4905 50.2085 56.5297C50.2242 56.5611 50.232 56.5924 50.232 56.6238C50.2007 56.6551 50.1771 56.6943 50.1615 56.7414C50.1458 56.7805 50.1301 56.8315 50.1144 56.8942C50.1066 57.0902 50.1027 57.2862 50.1027 57.4822C50.1027 57.6703 50.0988 57.8663 50.0909 58.0701C50.0831 58.8227 50.0752 59.5831 50.0674 60.3513C50.0674 61.1195 50.0674 61.8839 50.0674 62.6443C50.2477 62.6521 50.4437 62.6952 50.6553 62.7736C50.867 62.852 51.0199 62.9735 51.1139 63.1381C50.918 63.2557 50.6906 63.3184 50.4319 63.3263C50.1811 63.3341 49.9185 63.3302 49.6441 63.3145C49.4795 63.3067 49.3148 63.3027 49.1502 63.3027C48.9934 63.2949 48.8406 63.3028 48.6916 63.3263C48.6446 63.3341 48.6093 63.3537 48.5858 63.3851C48.5623 63.4086 48.5388 63.436 48.5152 63.4674C48.4917 63.5144 48.4604 63.5536 48.4212 63.585C48.382 63.6242 48.3193 63.632 48.233 63.6085C48.1546 63.4987 48.1233 63.389 48.139 63.2792C48.1625 63.1695 48.2056 63.0676 48.2683 62.9735C48.3389 62.8716 48.4016 62.7893 48.4564 62.7266C48.4956 62.7266 48.5348 62.7266 48.574 62.7266C48.6211 62.7266 48.6681 62.7266 48.7151 62.7266C48.8092 62.7266 48.9033 62.7266 48.9974 62.7266C49.0914 62.7266 49.1737 62.7109 49.2443 62.6795C49.2364 61.974 49.2325 61.2254 49.2325 60.4336C49.2325 59.634 49.2247 58.8462 49.209 58.0701C49.2012 57.4586 49.1777 56.8707 49.1385 56.3063C49.0836 56.2906 49.0248 56.2828 48.9621 56.2828C48.8994 56.2749 48.8327 56.271 48.7622 56.271C48.6524 56.271 48.5466 56.2671 48.4447 56.2592C48.3428 56.2514 48.2526 56.2161 48.1742 56.1534C48.1586 56.0907 48.1586 56.0437 48.1742 56.0123C48.1978 55.981 48.2213 55.9496 48.2448 55.9182C48.2683 55.8947 48.2879 55.8712 48.3036 55.8477C48.3193 55.8163 48.3271 55.7811 48.3271 55.7419C48.5701 55.7419 48.8288 55.7301 49.1032 55.7066C49.3854 55.6831 49.6598 55.6713 49.9263 55.6713C50.1928 55.6713 50.4358 55.6948 50.6553 55.7419C50.8748 55.7889 51.0434 55.8869 51.161 56.0358Z" fill="white"/>
<path d="M60.5413 63.0676C60.5256 63.146 60.4433 63.2048 60.2943 63.244C60.1454 63.2832 59.969 63.3067 59.7652 63.3145C59.5457 63.3223 59.3144 63.3184 59.0714 63.3027C58.8284 63.2792 58.6011 63.2557 58.3894 63.2322C58.1856 63.2087 58.0327 63.1891 57.9308 63.1734C57.8603 63.0166 57.8563 62.8951 57.919 62.8089C57.9818 62.7148 58.0758 62.6443 58.2013 62.5972C58.3267 62.5423 58.4443 62.5071 58.554 62.4914C58.5775 62.3816 58.5736 62.2445 58.5423 62.0798C58.5109 61.9074 58.4639 61.731 58.4012 61.5507C58.3463 61.3626 58.2953 61.194 58.2483 61.0451C58.2169 60.9588 58.1895 60.8804 58.166 60.8099C58.1425 60.7393 58.1268 60.6845 58.1189 60.6453C57.6878 60.6296 57.2135 60.6296 56.6961 60.6453C56.1866 60.6609 55.7358 60.6805 55.3439 60.7041C55.3047 60.7746 55.2537 60.8883 55.191 61.0451C55.1283 61.194 55.0577 61.3586 54.9794 61.5389C54.9088 61.7192 54.8382 61.8917 54.7677 62.0563C54.6971 62.2209 54.6384 62.3542 54.5913 62.4561C54.6305 62.5423 54.7207 62.5933 54.8618 62.609C55.0029 62.6247 55.1401 62.6521 55.2733 62.6913C55.3909 62.7227 55.485 62.7814 55.5555 62.8677C55.6261 62.9461 55.6418 63.0793 55.6026 63.2675C55.4066 63.3067 55.1989 63.3263 54.9794 63.3263C54.7599 63.3184 54.5443 63.3067 54.3326 63.291C54.1053 63.2753 53.8858 63.2675 53.6741 63.2675C53.4703 63.2675 53.2861 63.2949 53.1215 63.3498C53.0823 63.2949 53.047 63.2361 53.0156 63.1734C52.9921 63.1029 52.949 63.0519 52.8863 63.0205C52.8941 62.903 52.9216 62.8089 52.9686 62.7383C53.0156 62.6678 53.0509 62.5855 53.0744 62.4914C53.2704 62.5071 53.439 62.4875 53.5801 62.4326C53.729 62.3699 53.8544 62.2837 53.9563 62.1739C54.1288 61.9936 54.2581 61.7663 54.3444 61.4919C54.4385 61.2097 54.5364 60.9471 54.6383 60.7041C54.803 60.2964 54.9637 59.8692 55.1205 59.4224C55.2851 58.9677 55.4536 58.5169 55.6261 58.0701C55.7985 57.6076 55.9749 57.1608 56.1552 56.7296C56.3355 56.2984 56.5158 55.9065 56.6961 55.5537C56.8059 55.5302 56.9431 55.5145 57.1077 55.5067C57.2723 55.4988 57.4056 55.5145 57.5075 55.5537C57.4605 55.6791 57.4448 55.785 57.4605 55.8712C57.484 55.9574 57.5114 56.0358 57.5428 56.1064C57.5741 56.1769 57.5976 56.2514 57.6133 56.3298C57.6368 56.4003 57.629 56.4905 57.5898 56.6002C57.676 56.8197 57.7662 57.0549 57.8603 57.3058C57.9543 57.5566 58.0523 57.8153 58.1542 58.0819C58.358 58.6306 58.5579 59.1989 58.7539 59.7869C58.9577 60.3748 59.138 60.9275 59.2948 61.4449C59.3183 61.5233 59.3458 61.6212 59.3771 61.7388C59.4163 61.8564 59.4516 61.9505 59.483 62.021C59.5065 62.0602 59.5339 62.0994 59.5653 62.1386C59.5966 62.17 59.628 62.2013 59.6593 62.2327C59.7142 62.2876 59.7613 62.3425 59.8005 62.3973C59.8396 62.4444 59.8514 62.511 59.8357 62.5972C59.8592 62.6051 59.8945 62.6129 59.9416 62.6207C60.0983 62.6521 60.2473 62.6952 60.3884 62.7501C60.5295 62.805 60.5805 62.9108 60.5413 63.0676ZM57.872 59.928C57.8171 59.779 57.7387 59.5282 57.6368 59.1754C57.5349 58.8227 57.4173 58.4542 57.2841 58.0701C57.2057 57.8428 57.1234 57.6272 57.0371 57.4234C56.9509 57.2117 56.8647 57.0236 56.7784 56.8589L56.3316 58.0701C56.2375 58.3288 56.1396 58.5914 56.0376 58.8579C55.9357 59.1245 55.8456 59.3636 55.7672 59.5752C55.6966 59.7869 55.6418 59.9397 55.6026 60.0338C55.7045 60.026 55.8613 60.0221 56.0729 60.0221C56.2846 60.0142 56.508 60.0103 56.7432 60.0103C56.9862 60.0025 57.2096 59.9946 57.4134 59.9868C57.6251 59.9711 57.7779 59.9515 57.872 59.928Z" fill="white"/>
<path d="M74.514 56.0241C74.4278 56.126 74.3337 56.2161 74.2318 56.2945C74.1299 56.3729 74.0084 56.4356 73.8673 56.4827C73.8045 56.5767 73.7575 56.6904 73.7261 56.8237C73.7026 56.9569 73.6242 57.0432 73.491 57.0824C73.4753 57.2627 73.4479 57.4351 73.4087 57.5997C73.3695 57.7644 73.3264 57.9251 73.2793 58.0819C73.248 58.1916 73.2166 58.3053 73.1852 58.4229C73.1539 58.5404 73.1186 58.662 73.0794 58.7874C73.0245 58.9755 72.9736 59.1715 72.9266 59.3753C72.8795 59.5791 72.8246 59.7712 72.7619 59.9515C72.7384 60.0221 72.6992 60.0926 72.6443 60.1632C72.5895 60.2337 72.5542 60.3043 72.5385 60.3748C72.4836 60.61 72.4484 60.8491 72.4327 61.0921C72.417 61.3273 72.3739 61.5507 72.3033 61.7624C72.2798 61.8407 72.2485 61.9191 72.2093 61.9975C72.1779 62.0681 72.1426 62.1386 72.1034 62.2092C72.025 62.366 71.9545 62.5228 71.8918 62.6795C71.8291 62.8363 71.8095 63.0088 71.833 63.1969C71.6919 63.3223 71.5743 63.3772 71.4802 63.3615C71.394 63.3459 71.3195 63.2871 71.2568 63.1852C71.1941 63.0833 71.1392 62.9539 71.0922 62.7971C71.053 62.6325 71.0216 62.4679 70.9981 62.3033C70.9746 62.1386 70.9472 62.0054 70.9158 61.9035C70.8217 61.5272 70.712 61.1235 70.5866 60.6923C70.469 60.2533 70.3475 59.8104 70.222 59.3636C70.1044 58.9089 69.9947 58.4817 69.8928 58.0819C69.8614 57.9407 69.8301 57.8036 69.7987 57.6703C69.7674 57.5292 69.7399 57.3959 69.7164 57.2705C69.638 57.3802 69.5792 57.5057 69.54 57.6468C69.5008 57.7879 69.4695 57.929 69.446 58.0701C69.4146 58.2504 69.3793 58.4307 69.3401 58.611C69.3009 58.7835 69.2225 58.9285 69.1049 59.0461C69.0971 59.3596 69.0501 59.6536 68.9638 59.928C68.8855 60.2024 68.7914 60.4728 68.6816 60.7393C68.5797 61.0059 68.4817 61.2802 68.3877 61.5625C68.3014 61.8447 68.2505 62.1582 68.2348 62.5032C68.1251 62.6129 68.0271 62.7383 67.9408 62.8794C67.8546 63.0127 67.7958 63.1812 67.7645 63.3851C67.7174 63.4243 67.6586 63.4399 67.5881 63.4321C67.5254 63.4321 67.4626 63.4243 67.3999 63.4086C67.3372 63.3929 67.2902 63.3851 67.2588 63.3851C67.0628 62.8912 66.8982 62.366 66.765 61.8094C66.6317 61.245 66.5063 60.6766 66.3887 60.1044C66.3181 59.7673 66.2515 59.4302 66.1888 59.0931C66.1261 58.7482 66.0594 58.4072 65.9889 58.0701C65.934 57.8271 65.8791 57.588 65.8243 57.3528C65.7694 57.1176 65.7106 56.8903 65.6479 56.6708C65.64 56.514 65.6518 56.3768 65.6831 56.2592C65.6048 56.2436 65.5303 56.2396 65.4597 56.2475C65.397 56.2475 65.3343 56.2514 65.2716 56.2592C65.1932 56.2671 65.1187 56.271 65.0482 56.271C64.9776 56.271 64.8992 56.2514 64.813 56.2122C64.7111 56.0711 64.6797 55.9614 64.7189 55.883C64.766 55.8046 64.8248 55.7458 64.8953 55.7066C65.0599 55.7301 65.2206 55.7379 65.3774 55.7301C65.542 55.7223 65.7027 55.7144 65.8595 55.7066C65.9458 55.6987 66.0281 55.6948 66.1065 55.6948C66.1849 55.687 66.2632 55.6831 66.3416 55.6831C66.5533 55.6831 66.7454 55.7105 66.9178 55.7654C67.0903 55.8203 67.2353 55.9378 67.3529 56.1181C67.2275 56.2044 67.0628 56.271 66.859 56.318C66.663 56.3651 66.5063 56.4082 66.3887 56.4474C66.4749 56.7061 66.5533 56.9726 66.6238 57.247C66.7022 57.5135 66.7728 57.7879 66.8355 58.0701C66.9845 58.6972 67.1256 59.3322 67.2588 59.975C67.3999 60.6178 67.5567 61.241 67.7292 61.8447C67.9643 61.2646 68.1721 60.6531 68.3524 60.0103C68.5327 59.3596 68.7091 58.7129 68.8815 58.0701C68.9913 57.6781 69.105 57.2979 69.2225 56.9295C69.3401 56.5532 69.4695 56.1887 69.6106 55.8359C69.7438 55.8281 69.8575 55.8438 69.9516 55.883C70.0535 55.9143 70.1436 55.9496 70.222 55.9888C70.2769 56.3102 70.3435 56.6473 70.4219 57C70.5003 57.3528 70.5866 57.7134 70.6806 58.0819C70.8374 58.6698 70.9981 59.2617 71.1627 59.8574C71.3352 60.4454 71.4802 61.0059 71.5978 61.5389C71.7232 61.241 71.8526 60.904 71.9858 60.5277C72.127 60.1514 72.2641 59.7555 72.3974 59.34C72.5307 58.9167 72.6404 58.4973 72.7267 58.0819L72.7619 57.9172C72.7776 57.8467 72.7972 57.7722 72.8207 57.6938C72.8442 57.6154 72.8638 57.537 72.8795 57.4586C72.9266 57.3019 72.9697 57.149 73.0089 57C73.0481 56.8511 73.0559 56.7296 73.0324 56.6355C73.0089 56.5258 72.9657 56.4474 72.903 56.4003C72.8482 56.3533 72.7815 56.322 72.7031 56.3063C72.6012 56.2828 72.4993 56.2632 72.3974 56.2475C72.3033 56.224 72.2249 56.1652 72.1622 56.0711C72.1779 55.93 72.2681 55.832 72.4327 55.7771C72.6051 55.7144 72.8011 55.6831 73.0206 55.6831C73.2166 55.6831 73.4165 55.7027 73.6203 55.7419C73.8241 55.7732 74.0084 55.8163 74.173 55.8712C74.3376 55.9182 74.4513 55.9692 74.514 56.0241Z" fill="white"/>
<path d="M79.4785 56.0358C79.4393 56.1534 79.3452 56.22 79.1963 56.2357C79.0552 56.2514 78.9062 56.2553 78.7494 56.2475C78.7024 56.2475 78.6554 56.2475 78.6083 56.2475C78.5613 56.2475 78.5143 56.2475 78.4672 56.2475C78.4359 56.271 78.4437 56.3298 78.4907 56.4239C78.5064 56.4552 78.5182 56.4905 78.526 56.5297C78.5417 56.5611 78.5495 56.5924 78.5495 56.6238C78.5182 56.6551 78.4947 56.6943 78.479 56.7414C78.4633 56.7805 78.4476 56.8315 78.432 56.8942C78.4241 57.0902 78.4202 57.2862 78.4202 57.4822C78.4202 57.6703 78.4163 57.8663 78.4084 58.0701C78.4006 58.8227 78.3928 59.5831 78.3849 60.3513C78.3849 61.1195 78.3849 61.8839 78.3849 62.6443C78.5652 62.6521 78.7612 62.6952 78.9729 62.7736C79.1845 62.852 79.3374 62.9735 79.4315 63.1381C79.2355 63.2557 79.0081 63.3184 78.7494 63.3263C78.4986 63.3341 78.236 63.3302 77.9616 63.3145C77.797 63.3067 77.6324 63.3027 77.4677 63.3027C77.311 63.2949 77.1581 63.3028 77.0091 63.3263C76.9621 63.3341 76.9268 63.3537 76.9033 63.3851C76.8798 63.4086 76.8563 63.436 76.8328 63.4674C76.8092 63.5144 76.7779 63.5536 76.7387 63.585C76.6995 63.6242 76.6368 63.632 76.5505 63.6085C76.4722 63.4987 76.4408 63.389 76.4565 63.2792C76.48 63.1695 76.5231 63.0676 76.5858 62.9735C76.6564 62.8716 76.7191 62.7893 76.774 62.7266C76.8132 62.7266 76.8524 62.7266 76.8916 62.7266C76.9386 62.7266 76.9856 62.7266 77.0327 62.7266C77.1267 62.7266 77.2208 62.7266 77.3149 62.7266C77.4089 62.7266 77.4913 62.7109 77.5618 62.6795C77.554 61.974 77.55 61.2254 77.55 60.4336C77.55 59.634 77.5422 58.8462 77.5265 58.0701C77.5187 57.4586 77.4952 56.8707 77.456 56.3063C77.4011 56.2906 77.3423 56.2828 77.2796 56.2828C77.2169 56.2749 77.1502 56.271 77.0797 56.271C76.9699 56.271 76.8641 56.2671 76.7622 56.2592C76.6603 56.2514 76.5701 56.2161 76.4918 56.1534C76.4761 56.0907 76.4761 56.0437 76.4918 56.0123C76.5153 55.981 76.5388 55.9496 76.5623 55.9182C76.5858 55.8947 76.6054 55.8712 76.6211 55.8477C76.6368 55.8163 76.6446 55.7811 76.6446 55.7419C76.8876 55.7419 77.1463 55.7301 77.4207 55.7066C77.7029 55.6831 77.9773 55.6713 78.2438 55.6713C78.5103 55.6713 78.7534 55.6948 78.9729 55.7419C79.1924 55.7889 79.3609 55.8869 79.4785 56.0358Z" fill="white"/>
<path d="M87.3537 60.9863C87.4869 61.3469 87.5418 61.7428 87.5183 62.1739C87.4948 62.5972 87.4164 62.9813 87.2831 63.3263C86.9303 63.3811 86.5227 63.4047 86.0602 63.3968C85.5977 63.389 85.1195 63.3694 84.6256 63.338C84.1788 63.3145 83.7359 63.2988 83.2969 63.291C82.8579 63.2753 82.4581 63.2871 82.0975 63.3263C82.0269 63.1616 82.0348 63.0323 82.121 62.9382C82.2151 62.8363 82.3444 62.7579 82.509 62.7031C82.6737 62.6403 82.8265 62.5933 82.9676 62.5619C83.0068 61.9583 83.0225 61.2998 83.0147 60.5865C83.0147 59.8653 83.0068 59.1519 82.9911 58.4464C82.9911 58.3837 82.9911 58.3209 82.9911 58.2582C82.9911 58.1955 82.9911 58.1328 82.9911 58.0701C82.9833 57.7487 82.9755 57.439 82.9676 57.1412C82.9676 56.8354 82.9676 56.5454 82.9676 56.271C82.8657 56.224 82.7716 56.2083 82.6854 56.224C82.5992 56.2396 82.513 56.2592 82.4267 56.2828C82.364 56.3063 82.2974 56.3259 82.2268 56.3416C82.1641 56.3494 82.1014 56.3416 82.0387 56.318C82.0308 56.3024 82.023 56.2867 82.0152 56.271C82.0073 56.2553 81.9916 56.2436 81.9681 56.2357C81.9211 56.1652 81.9054 56.1064 81.9211 56.0593C81.9446 56.0045 81.9721 55.9496 82.0034 55.8947C82.0348 55.8555 82.0622 55.8124 82.0857 55.7654C82.1092 55.7105 82.1132 55.6478 82.0975 55.5772C82.2699 55.6556 82.4698 55.6987 82.6972 55.7066C82.9245 55.7066 83.1558 55.6987 83.3909 55.6831C83.4772 55.6752 83.5634 55.6713 83.6496 55.6713C83.7359 55.6635 83.8221 55.6595 83.9083 55.6595C84.1357 55.6595 84.3356 55.6909 84.508 55.7536C84.6805 55.8085 84.7942 55.9378 84.849 56.1417C84.7942 56.1965 84.7314 56.2279 84.6609 56.2357C84.5982 56.2436 84.5276 56.2475 84.4492 56.2475C84.3552 56.2475 84.2611 56.2553 84.167 56.271C84.073 56.2867 83.9906 56.3494 83.9201 56.4591C83.8966 56.9609 83.8848 57.4978 83.8848 58.0701C83.8848 58.2269 83.8848 58.3915 83.8848 58.564C83.8848 58.7286 83.8848 58.8932 83.8848 59.0578C83.8927 59.6379 83.8927 60.2376 83.8848 60.8569C83.8848 61.4762 83.8691 62.1034 83.8378 62.7383C83.971 62.7854 84.0965 62.8089 84.2141 62.8089C84.3395 62.801 84.4649 62.7893 84.5903 62.7736C84.6452 62.7658 84.7001 62.7579 84.755 62.7501C84.8177 62.7422 84.8765 62.7383 84.9313 62.7383C85.0097 62.7383 85.0881 62.7422 85.1665 62.7501C85.2527 62.7579 85.339 62.7658 85.4252 62.7736C85.5506 62.7893 85.6761 62.801 85.8015 62.8089C85.9269 62.8167 86.0484 62.805 86.166 62.7736C86.3855 62.7109 86.5305 62.5933 86.6011 62.4208C86.6716 62.2405 86.7344 62.0485 86.7892 61.8447C86.8363 61.6644 86.8951 61.4919 86.9656 61.3273C87.044 61.1627 87.1734 61.049 87.3537 60.9863Z" fill="white"/>
<path d="M94.1841 61.8799C94.0979 62.2249 93.9254 62.5228 93.6667 62.7736C93.4159 63.0166 93.118 63.1969 92.7731 63.3145C92.4281 63.4321 92.0519 63.4831 91.6442 63.4674C91.2444 63.4595 90.8407 63.3772 90.4331 63.2204C90.3547 63.2361 90.288 63.2675 90.2332 63.3145C90.1783 63.3537 90.1273 63.4007 90.0803 63.4556C90.0098 63.5262 89.9392 63.5771 89.8687 63.6085C89.7981 63.6477 89.7001 63.6163 89.5747 63.5144C89.4884 63.3733 89.4297 63.1891 89.3983 62.9617C89.3669 62.7266 89.3552 62.4796 89.363 62.2209C89.3787 61.9544 89.4101 61.7075 89.4571 61.4801C89.5041 61.245 89.5629 61.0607 89.6335 60.9275C89.8138 60.9902 89.9353 61.0921 89.998 61.2332C90.0607 61.3665 90.1077 61.5154 90.1391 61.68C90.1783 61.8525 90.2136 62.025 90.2449 62.1974C90.2841 62.362 90.3664 62.511 90.4919 62.6443C90.6251 62.7775 90.7858 62.8755 90.974 62.9382C91.1621 62.9931 91.3581 63.0205 91.5619 63.0205C91.8206 63.0127 92.0754 62.9657 92.3262 62.8794C92.5849 62.7854 92.8083 62.6639 92.9965 62.5149C93.1925 62.3581 93.3179 62.1817 93.3728 61.9858C93.4198 61.6487 93.408 61.3782 93.3375 61.1744C93.2669 60.9706 93.1572 60.8021 93.0082 60.6688C92.8279 60.4963 92.6045 60.3591 92.338 60.2572C92.0793 60.1475 91.8206 60.0181 91.5619 59.8692C91.46 59.8065 91.3659 59.732 91.2797 59.6458C91.2013 59.5595 91.1112 59.489 91.0092 59.4341C90.8995 59.3714 90.7819 59.3204 90.6565 59.2812C90.5389 59.2421 90.437 59.195 90.3508 59.1401C90.1705 59.0226 90.0137 58.8697 89.8804 58.6816C89.755 58.4934 89.6609 58.2896 89.5982 58.0701C89.5668 57.9603 89.5433 57.8467 89.5276 57.7291C89.512 57.6115 89.5041 57.49 89.5041 57.3646C89.5041 57.1137 89.5433 56.8668 89.6217 56.6238C89.7079 56.3808 89.8373 56.1613 90.0098 55.9653C90.3155 55.8242 90.6604 55.7144 91.0445 55.636C91.4286 55.5576 91.8206 55.5263 92.2204 55.542C92.6202 55.5498 92.9926 55.6282 93.3375 55.7771C93.3688 55.7615 93.3963 55.7419 93.4198 55.7183C93.4433 55.6948 93.4629 55.6674 93.4786 55.636C93.5256 55.5812 93.5727 55.538 93.6197 55.5067C93.6746 55.4675 93.753 55.4792 93.8549 55.542C93.9019 55.7301 93.9293 55.9653 93.9372 56.2475C93.9529 56.5219 93.945 56.7923 93.9137 57.0588C93.8902 57.3175 93.8392 57.5135 93.7608 57.6468C93.5962 57.6389 93.4786 57.5841 93.408 57.4822C93.3453 57.3724 93.3061 57.2391 93.2905 57.0824C93.2826 56.9256 93.2787 56.761 93.2787 56.5885C93.2787 56.5728 93.2787 56.5611 93.2787 56.5532C93.0984 56.3886 92.8671 56.2632 92.5849 56.1769C92.3027 56.0829 92.0127 56.0358 91.7148 56.0358C91.4796 56.0358 91.2562 56.0711 91.0445 56.1417C90.8407 56.2044 90.6722 56.3063 90.5389 56.4474C90.4292 56.565 90.3508 56.7061 90.3037 56.8707C90.2567 57.0353 90.2567 57.2313 90.3037 57.4586C90.3194 57.5449 90.3586 57.6429 90.4213 57.7526C90.4919 57.8545 90.5585 57.9368 90.6212 57.9995L90.6918 58.0701C90.8799 58.2426 91.1112 58.4033 91.3855 58.5522C91.6677 58.7011 91.9656 58.854 92.2792 59.0108C92.5928 59.1597 92.8867 59.3283 93.1611 59.5164C93.4198 59.6889 93.6432 59.8849 93.8314 60.1044C94.0195 60.3239 94.1488 60.5786 94.2194 60.8687C94.2978 61.1587 94.286 61.4958 94.1841 61.8799Z" fill="white"/>
<path d="M103.348 60.0456C103.333 60.3356 103.274 60.5982 103.172 60.8334C103.078 61.0686 102.972 61.2998 102.854 61.5272C102.745 61.7467 102.655 61.9897 102.584 62.2562C102.506 62.2405 102.419 62.2876 102.325 62.3973C102.239 62.5071 102.161 62.6207 102.09 62.7383C101.761 62.9108 101.412 63.0911 101.044 63.2792C100.675 63.4674 100.271 63.5614 99.8325 63.5614C99.4248 63.5614 99.0485 63.4752 98.7036 63.3027C98.3665 63.1224 98.0373 62.9539 97.7159 62.7971C97.7159 62.6874 97.6728 62.6168 97.5865 62.5855C97.5081 62.5541 97.4415 62.511 97.3866 62.4561C97.0809 62.1112 96.8261 61.7075 96.6223 61.245C96.4185 60.7746 96.3009 60.2455 96.2696 59.6575C96.246 59.1088 96.3048 58.5796 96.4459 58.0701C96.5714 57.6154 96.7556 57.2078 96.9986 56.8472C97.2495 56.4866 97.5552 56.224 97.9158 56.0593C98.0412 55.9261 98.1862 55.8046 98.3509 55.6948C98.5233 55.5772 98.7311 55.5498 98.9741 55.6125L99.0211 55.5302C99.2328 55.4832 99.4875 55.4636 99.7854 55.4714C100.083 55.4714 100.385 55.5028 100.691 55.5655C100.997 55.6204 101.271 55.7144 101.514 55.8477C101.765 55.9731 101.941 56.1417 102.043 56.3533C102.09 56.3612 102.129 56.3612 102.161 56.3533C102.2 56.3455 102.235 56.3416 102.267 56.3416C102.298 56.3337 102.329 56.3298 102.361 56.3298C102.392 56.322 102.431 56.3298 102.478 56.3533C102.47 56.4474 102.466 56.5375 102.466 56.6238C102.474 56.7022 102.49 56.7727 102.513 56.8354C102.655 56.9138 102.76 57.0275 102.831 57.1764C102.902 57.3175 102.96 57.4704 103.007 57.635C103.054 57.7918 103.105 57.9407 103.16 58.0819C103.176 58.1132 103.192 58.1446 103.207 58.1759C103.223 58.2073 103.239 58.2386 103.254 58.27C103.262 58.3641 103.27 58.4581 103.278 58.5522C103.286 58.6384 103.293 58.7286 103.301 58.8227C103.317 59.0343 103.333 59.246 103.348 59.4576C103.364 59.6693 103.364 59.8653 103.348 60.0456ZM102.243 58.0819C102.235 58.0427 102.227 58.0074 102.219 57.976C102.212 57.9447 102.204 57.9133 102.196 57.882C102.172 57.7565 102.118 57.5997 102.031 57.4116C101.953 57.2235 101.867 57.0432 101.773 56.8707C101.679 56.6904 101.596 56.565 101.526 56.4944C101.345 56.2906 101.114 56.1534 100.832 56.0829C100.558 56.0123 100.264 55.9888 99.9501 56.0123C99.6365 56.028 99.3347 56.0868 99.0446 56.1887C98.7546 56.2828 98.5076 56.4003 98.3038 56.5415C98.1235 56.7374 97.9667 56.9687 97.8335 57.2352C97.708 57.4939 97.6061 57.7722 97.5277 58.0701C97.4729 58.2818 97.4298 58.5013 97.3984 58.7286C97.367 58.9559 97.3514 59.1833 97.3514 59.4106C97.3435 59.9123 97.4023 60.4062 97.5277 60.8922C97.661 61.3704 97.8609 61.7819 98.1274 62.1269C98.3391 62.4012 98.5939 62.6168 98.8918 62.7736C99.1975 62.9304 99.5424 63.0009 99.9265 62.9853C100.389 62.9696 100.789 62.8246 101.126 62.5502C101.463 62.2758 101.73 61.9231 101.926 61.4919C102.153 61.0137 102.294 60.4767 102.349 59.8809C102.404 59.2773 102.368 58.6776 102.243 58.0819Z" fill="white"/>
<path d="M112.998 55.9182C112.99 56.0829 112.908 56.1809 112.751 56.2122C112.602 56.2436 112.437 56.2592 112.257 56.2592C112.194 56.2749 112.151 56.3141 112.128 56.3768C112.112 56.4317 112.096 56.4944 112.081 56.565C112.065 56.6277 112.018 56.6826 111.94 56.7296C111.963 56.9413 111.979 57.1608 111.987 57.3881C112.002 57.6154 112.014 57.8467 112.022 58.0819C112.03 58.3484 112.034 58.6228 112.034 58.905C112.034 59.1793 112.034 59.4576 112.034 59.7398C112.042 60.3435 112.049 60.9392 112.057 61.5272C112.073 62.1073 112.116 62.6403 112.187 63.1264C112.1 63.2518 111.967 63.3223 111.787 63.338C111.606 63.3537 111.481 63.3184 111.41 63.2322C111.222 63.0049 111.042 62.7501 110.87 62.4679C110.705 62.1857 110.509 61.9113 110.282 61.6448C109.858 61.1431 109.451 60.5708 109.059 59.928C108.667 59.2852 108.275 58.6659 107.883 58.0701C107.734 57.8271 107.581 57.5958 107.424 57.3763C107.267 57.1568 107.111 56.9491 106.954 56.7531C106.946 56.9883 106.938 57.2117 106.93 57.4234C106.923 57.635 106.919 57.8506 106.919 58.0701C106.919 58.3601 106.923 58.662 106.93 58.9755C106.938 59.2812 106.946 59.6223 106.954 59.9985C106.954 60.1396 106.95 60.2886 106.942 60.4454C106.942 60.5943 106.938 60.7433 106.93 60.8922C106.915 61.2058 106.903 61.5037 106.895 61.7859C106.895 62.0602 106.93 62.2876 107.001 62.4679C107.04 62.5776 107.111 62.6599 107.213 62.7148C107.314 62.7697 107.42 62.8206 107.53 62.8677C107.64 62.9069 107.722 62.9657 107.777 63.0441C107.746 63.1381 107.679 63.2008 107.577 63.2322C107.483 63.2636 107.412 63.3145 107.365 63.3851C107.224 63.3302 107.075 63.3067 106.919 63.3145C106.77 63.3145 106.621 63.3263 106.472 63.3498C106.307 63.3655 106.15 63.3733 106.001 63.3733C105.852 63.3733 105.715 63.338 105.59 63.2675C105.543 63.2048 105.523 63.1538 105.531 63.1146C105.547 63.0676 105.566 63.0245 105.59 62.9853C105.606 62.9539 105.621 62.9265 105.637 62.903C105.653 62.8716 105.66 62.8363 105.66 62.7971C105.762 62.7579 105.868 62.7266 105.978 62.7031C106.088 62.6717 106.197 62.6403 106.307 62.609C106.378 62.0054 106.405 61.3743 106.389 60.7158C106.382 60.0573 106.358 59.3792 106.319 58.6816C106.319 58.5796 106.315 58.4777 106.307 58.3758C106.307 58.2739 106.303 58.172 106.295 58.0701C106.288 57.7722 106.276 57.4782 106.26 57.1882C106.252 56.8903 106.244 56.5924 106.237 56.2945C106.143 56.3259 106.045 56.3376 105.943 56.3298C105.841 56.322 105.754 56.2984 105.684 56.2592C105.606 56.2044 105.558 56.1299 105.543 56.0358C105.527 55.9418 105.574 55.832 105.684 55.7066C105.786 55.7144 105.888 55.7183 105.99 55.7183C106.092 55.7183 106.193 55.7144 106.295 55.7066C106.562 55.7066 106.821 55.7144 107.071 55.7301C107.33 55.7458 107.573 55.8046 107.801 55.9065C107.801 55.9457 107.789 55.9731 107.765 55.9888C107.75 56.0045 107.73 56.0201 107.706 56.0358C107.644 56.0593 107.612 56.0907 107.612 56.1299C107.832 56.4513 108.051 56.7766 108.271 57.1059C108.498 57.4273 108.722 57.7487 108.941 58.0701C109.364 58.6737 109.788 59.2773 110.211 59.8809C110.642 60.4846 111.066 61.0803 111.481 61.6683C111.465 61.0647 111.457 60.465 111.457 59.8692C111.457 59.2734 111.45 58.6776 111.434 58.0819C111.418 57.4939 111.383 56.906 111.328 56.318C111.273 56.2945 111.218 56.2788 111.164 56.271C111.109 56.2632 111.054 56.2592 110.999 56.2592C110.897 56.2436 110.807 56.224 110.728 56.2005C110.65 56.1769 110.607 56.1142 110.599 56.0123C110.591 55.879 110.685 55.785 110.881 55.7301C111.085 55.6674 111.32 55.6321 111.587 55.6243C111.791 55.6164 111.994 55.6243 112.198 55.6478C112.402 55.6713 112.578 55.7066 112.727 55.7536C112.876 55.8007 112.967 55.8555 112.998 55.9182Z" fill="white"/>
</svg>
