<svg version="1.1" xmlns="http://www.w3.org/2000/svg" width="205" height="32" viewBox="0 0 205 32">
<path fill="#ffffff" d="M10.978 0c5.006 0 9.045 2.713 9.045 7.063 0 2.972-1.669 5.168-2.326 5.168-0.614 0-3.776-1.895-3.776-2.454 0-0.216 0.614-1.206 0.614-2.197 0-1.809-1.274-3.101-3.469-3.101-2.152 0-3.689 1.421-3.689 3.531 0 2.24 2.459 3.576 5.665 5.169 0.251 0.127 0.503 0.254 0.755 0.382l0.755 0.387c4.017 2.081 7.799 4.471 7.799 8.836 0 5.556-4.919 9.216-11.461 9.216-6.412 0-10.891-3.144-10.891-8.786 0-3.618 2.284-6.418 2.81-6.418 0.703 0 3.733 2.068 3.733 2.628 0 0.345-1.054 1.464-1.054 3.36 0 2.8 2.372 4.694 5.577 4.694 3.336 0 5.445-1.938 5.445-4.565 0-2.499-2.196-3.92-7.026-6.202-4.215-1.981-7.816-4.092-7.816-8.83 0-4.435 3.909-7.881 9.309-7.881zM149.34 0c5.27 0 8.608 3.531 8.608 8.097 0 4.522-3.469 8.010-7.948 9.216-0.264 0.087-0.616 0.13-0.834 0.13-0.571 0-1.933-3.404-1.933-3.963 0-0.172 0.132-0.301 0.351-0.388 3.073-1.206 4.962-2.799 4.962-5.211 0-1.851-1.142-3.187-3.293-3.187-4.479 0-7.728 5.814-7.728 12.060 0 6.373 4.215 10.552 9.879 10.552 4.096 0 7.244-2.044 8.937-4.792-0.045-0.444-0.067-0.899-0.067-1.367 0-6.030 3.954-10.553 9.398-10.553 2.765 0 4.698 0.992 6.059 2.197l0.133-0.043v-0.559c0-0.646 0.438-1.034 1.010-1.034h3.381c0.658 0 1.054 0.388 1.054 1.12 0 0.818-0.483 7.064-0.483 10.466 0 1.938 0.79 3.531 2.326 3.531 2.147 0 3.971-2.651 5.008-5.033l-0.002-9.008c0-0.646 0.35-1.076 1.010-1.076h3.514c0.702 0 1.098 0.388 1.098 1.12 0 2.412-0.221 8.614-0.221 10.25 0 2.196 0.747 3.747 2.547 3.747 2.416 0 4.48-3.101 5.27-5.297 0.088-0.216 0.174-0.345 0.438-0.345 0.395 0 2.986 1.162 2.986 1.637 0 0.129-0.043 0.301-0.088 0.43-1.229 3.704-4.478 8.269-9.835 8.269-2.912 0-4.982-1.228-6-3.491-1.642 1.908-4.008 3.49-7.173 3.49-3.162 0-5.446-1.464-5.446-3.962v-0.431l-0.174-0.042c-1.099 2.368-3.557 4.435-7.378 4.435-3.011 0-5.408-1.399-6.866-3.744-2.398 2.705-6.21 4.778-11.183 4.778-8.914 0-14.973-5.986-14.973-15.16 0-9.303 5.532-16.84 13.655-16.84zM87.383 0.904c0.746 0 1.097 0.43 1.097 1.163 0 2.843-0.57 16.237-0.57 20.717 0 1.98 0.702 3.488 2.459 3.488 2.259 0 4.161-2.934 5.094-5.037l-0.001-9.004c0-0.646 0.351-1.076 1.010-1.076h3.513c0.703 0 1.097 0.388 1.097 1.12 0 2.412-0.219 8.614-0.219 10.25 0 2.196 0.746 3.747 2.546 3.747 1.87 0 3.528-1.857 4.549-3.715-0.075-0.525-0.113-1.068-0.113-1.625 0-5.944 4.39-10.337 10.934-10.337 6.279 0 10.362 4.393 10.362 9.993 0 5.126-3.689 10.379-10.978 10.379-3.736 0-6.678-1.509-8.449-3.947-1.719 2.204-4.224 3.947-7.534 3.947-2.905 0-4.973-1.222-5.994-3.475-1.718 1.966-4.135 3.475-7.136 3.475-3.644 0-6.191-1.679-6.191-4.263v-0.345l-0.176-0.043c-1.097 2.283-3.513 4.651-7.289 4.651-3.047 0-5.418-1.382-6.877-3.656-1.716 2.076-4.169 3.656-7.351 3.656-3.557 0-5.752-1.852-5.752-4.393 0-0.216 0-0.56 0.043-0.689l-0.176-0.043c-1.185 2.542-3.644 5.126-7.596 5.126-2.832 0-4.772-1.303-5.741-3.516-1.733 1.969-4.27 3.516-7.783 3.516-4.787 0-8.036-3.101-8.036-7.752v-7.71h-1.141c-0.659 0-0.966-0.216-0.966-0.862v-2.412c0-0.474 0.219-0.818 0.79-0.818h1.317v-4.91c0-0.732 0.396-1.162 1.054-1.162h3.337c0.702 0 1.053 0.43 1.053 1.162v4.997c1.406-0.043 3.073-0.087 4.127-0.087 0.396 0 0.703 0.216 0.703 0.689v2.627c0 0.603-0.263 0.775-0.746 0.775-1.011 0-2.634-0.043-4.084-0.043v5.599c0 3.273 0.879 5.211 3.733 5.211 3.093 0 5.082-3.048 5.928-5.119l-0-8.879c0-0.775 0.396-1.12 1.097-1.12h3.426c0.746 0 1.097 0.431 1.097 1.077 0 2.671-0.219 7.106-0.219 9.993 0 2.713 0.657 4.048 2.635 4.048 3.073 0 5.708-6.030 5.708-12.534v-1.464c0-0.688 0.307-1.12 1.054-1.12h3.469c0.746 0 1.097 0.388 1.097 1.12 0 0.763-0.188 3.521-0.318 6.326l-0.039 0.885c-0.048 1.176-0.082 2.324-0.082 3.298 0 1.895 0.79 3.489 2.416 3.489 1.813 0 3.378-1.894 4.38-3.676-0.052-0.483-0.078-0.982-0.078-1.493 0-5.642 3.645-10.509 9.529-10.509 2.722 0 5.182 1.292 6.542 2.326l0.176-0.042v-10.854c0-0.732 0.351-1.12 1.010-1.12h3.25zM118.691 14.902c-3.293 0-5.137 2.972-5.137 5.986 0 3.273 1.932 5.772 4.918 5.772 3.206 0 4.919-2.843 4.919-6.245 0-3.058-1.581-5.513-4.699-5.513zM78.161 15.289c-3.206 0-5.62 2.541-5.62 6.115 0 2.972 1.624 4.867 3.996 4.867 3.865 0 5.928-5.556 5.928-9.088-0.922-0.862-2.503-1.895-4.303-1.895zM171.56 15.289c-3.206 0-5.621 2.541-5.621 6.159 0 2.885 1.626 4.823 3.909 4.823 4.126 0 6.016-5.814 6.016-9.088-0.923-0.862-2.504-1.895-4.304-1.895zM98.36 1.937c1.624 0 2.986 0.905 2.986 2.756 0 1.767-1.186 3.015-3.162 3.015-1.713 0-2.897-1.163-2.897-2.972 0-1.637 1.272-2.8 3.073-2.8zM191.056 1.937c1.626 0 2.986 0.905 2.986 2.756 0 1.767-1.184 3.015-3.162 3.015-1.712 0-2.898-1.163-2.898-2.972 0-1.637 1.274-2.8 3.074-2.8z"></path>
</svg>
