<svg aria-hidden="true" style="position: absolute; width: 0; height: 0; overflow: hidden;" version="1.1" xmlns="http://www.w3.org/2000/svg" xmlns:xlink="http://www.w3.org/1999/xlink">
<defs>
<symbol id="icon-clock" viewBox="0 0 32 32">
<path d="M16.746 0c0.129 0 0.234 0.105 0.234 0.234v0.245c0 0.129-0.105 0.234-0.234 0.234h-0.269v0.789c8.201 0.252 14.773 6.98 14.773 15.245 0 8.425-6.827 15.254-15.249 15.254s-15.251-6.829-15.251-15.254c0-8.264 6.572-14.992 14.773-15.244v-0.789h-0.269c-0.129 0-0.234-0.105-0.234-0.234v-0.245c0-0.129 0.105-0.234 0.234-0.234h1.492zM16.382 3.501v1.339c0 0.211-0.171 0.382-0.382 0.382s-0.382-0.171-0.382-0.382v-1.338c-7.015 0.2-12.662 5.847-12.86 12.863h1.338c0.211 0 0.382 0.171 0.382 0.382s-0.171 0.382-0.382 0.382h-1.338c0.2 7.016 5.846 12.664 12.86 12.863v-1.338c0-0.211 0.171-0.382 0.382-0.382s0.382 0.171 0.382 0.382v1.338c7.015-0.199 12.661-5.847 12.86-12.863h-1.338c-0.211 0-0.382-0.171-0.382-0.382s0.171-0.382 0.382-0.382h1.338c-0.199-7.017-5.845-12.664-12.86-12.863zM16 16.034c0.393 0 0.712 0.319 0.712 0.713 0 0.041-0.005 0.080-0.012 0.118l4.532 4.099c0.116 0.105 0.2 0.241 0.242 0.393l0.061 0.222c0.030 0.108-0.063 0.211-0.173 0.192l-0.228-0.039c-0.155-0.026-0.298-0.096-0.415-0.201l-4.532-4.1c-0.060 0.017-0.122 0.028-0.187 0.028-0.393 0-0.712-0.319-0.712-0.713s0.319-0.713 0.712-0.713z"></path>
</symbol>
<symbol id="icon-iso" viewBox="0 0 64 32">
<path d="M57.798 0c3.425 0 6.202 2.798 6.202 6.25v19.5c0 3.452-2.777 6.25-6.202 6.25h-51.597c-3.425 0-6.202-2.798-6.202-6.25v-19.5c0-3.452 2.777-6.25 6.202-6.25h51.597zM25.42 5.822c-1.357 0-2.564 0.233-3.62 0.698s-1.876 1.135-2.46 2.009c-0.584 0.874-0.877 1.9-0.877 3.078 0 1.254 0.288 2.256 0.863 3.007s1.263 1.311 2.064 1.681c0.801 0.371 1.843 0.746 3.125 1.126 0.943 0.266 1.683 0.508 2.22 0.727s0.985 0.518 1.343 0.898 0.537 0.864 0.537 1.454c0 0.722-0.264 1.306-0.792 1.753s-1.254 0.67-2.177 0.67c-0.905 0-1.617-0.238-2.135-0.713-0.498-0.456-0.783-1.069-0.855-1.841l-0.008-0.097h-4.242l0.003 0.13c0.040 1.161 0.368 2.173 0.987 3.034 0.641 0.893 1.513 1.577 2.616 2.052s2.343 0.712 3.719 0.712c1.452 0 2.705-0.271 3.761-0.812s1.857-1.268 2.404-2.18 0.82-1.9 0.82-2.964c0-1.235-0.292-2.232-0.877-2.992s-1.282-1.33-2.093-1.71c-0.811-0.38-1.857-0.76-3.139-1.14-0.943-0.285-1.673-0.537-2.192-0.755s-0.952-0.504-1.301-0.855c-0.349-0.351-0.523-0.793-0.523-1.325 0-0.76 0.231-1.339 0.693-1.739s1.079-0.598 1.852-0.598c0.886 0 1.598 0.223 2.135 0.67 0.515 0.428 0.8 0.965 0.856 1.611l0.006 0.085h4.355l-0.010-0.121c-0.154-1.728-0.853-3.079-2.097-4.054-1.272-0.998-2.927-1.496-4.963-1.496zM46.788 5.822c-1.848 0-3.544 0.437-5.090 1.311s-2.771 2.085-3.676 3.634c-0.905 1.549-1.357 3.292-1.357 5.23 0 1.957 0.452 3.71 1.357 5.258s2.13 2.76 3.676 3.634c1.546 0.874 3.243 1.311 5.090 1.311s3.544-0.437 5.090-1.311c1.546-0.874 2.767-2.085 3.662-3.634s1.343-3.301 1.343-5.258c0-1.938-0.448-3.681-1.343-5.23s-2.111-2.76-3.648-3.634c-1.536-0.874-3.238-1.311-5.104-1.311zM13.525 6.107h-3.959v19.893h3.959v-19.893zM46.788 9.413c1.188 0 2.234 0.266 3.139 0.798s1.612 1.297 2.121 2.294 0.764 2.161 0.764 3.491c0 1.33-0.255 2.498-0.764 3.506s-1.216 1.781-2.121 2.323c-0.905 0.541-1.951 0.812-3.139 0.812s-2.239-0.271-3.153-0.812c-0.914-0.542-1.626-1.316-2.135-2.323s-0.763-2.175-0.763-3.505 0.254-2.494 0.763-3.491c0.509-0.998 1.221-1.762 2.135-2.294s1.965-0.798 3.153-0.798z"></path>
</symbol>
<symbol id="icon-aperture" viewBox="0 0 32 32">
<path d="M9.278 21.191l14.768 8.581c-2.367 1.422-5.112 2.228-8.047 2.228-2.414 0-4.686-0.521-6.721-1.517v-9.292zM8.095 12.8v17.067c-4.449-2.465-7.526-7.064-8-12.421l8-4.646zM32 15.881v0.142c0 5.404-2.698 10.193-6.816 13.037l-8-4.599 14.816-8.581zM23.906 2.133c4.449 2.465 7.526 7.064 8 12.421l-8 4.646v-17.067zM6.816 2.939l8 4.599-14.816 8.533v-0.047c0-5.452 2.698-10.24 6.816-13.084zM16.001 0c2.414 0 4.686 0.521 6.721 1.517v9.244l-14.768-8.581c2.367-1.375 5.112-2.181 8.047-2.181z"></path>
</symbol>
<symbol id="icon-point" viewBox="0 0 20 32">
<path d="M10 12.889c-1.924 0-3.481-1.488-3.481-3.328 0-1.835 1.557-3.324 3.481-3.324 1.92 0 3.476 1.488 3.476 3.324 0 1.839-1.557 3.328-3.476 3.328zM10 0c-5.523 0-10 4.281-10 9.561 0 3.855 5.317 15.381 8.199 21.338 0.708 1.467 2.89 1.467 3.603 0 2.877-5.957 8.199-17.484 8.199-21.338 0-5.28-4.477-9.561-10-9.561z"></path>
</symbol>

<!-- socials -->
<symbol id="icon-twiter" viewBox="0 0 32 32">
<path d="M32 6.075c-1.177 0.523-2.443 0.874-3.77 1.035 1.357-0.812 2.395-2.099 2.885-3.631-1.269 0.753-2.677 1.298-4.169 1.594-1.196-1.276-2.903-2.073-4.79-2.073-3.627 0-6.567 2.936-6.567 6.564 0 0.516 0.058 1.017 0.168 1.496-5.456-0.274-10.294-2.885-13.53-6.86-0.563 0.969-0.889 2.099-0.889 3.302 0 2.278 1.159 4.286 2.918 5.463-1.075-0.033-2.088-0.329-2.973-0.823v0.084c0 3.181 2.264 5.833 5.266 6.436-0.549 0.15-1.13 0.23-1.73 0.23-0.424 0-0.834-0.040-1.232-0.117 0.834 2.607 3.258 4.505 6.129 4.56-2.245 1.759-5.072 2.808-8.151 2.808-0.53 0-1.049-0.029-1.565-0.091 2.907 1.861 6.355 2.947 10.063 2.947 12.075 0 18.679-10.001 18.679-18.675 0-0.285-0.007-0.567-0.018-0.848 1.283-0.929 2.399-2.084 3.276-3.401z"></path>
</symbol>
<symbol id="icon-instagram" viewBox="0 0 32 32">
<path d="M16 7.691c-4.582 0-8.309 3.727-8.309 8.309s3.727 8.306 8.309 8.306c4.582 0 8.306-3.727 8.306-8.306 0.003-4.582-3.724-8.309-8.306-8.309zM16 21.138c-2.834 0-5.138-2.304-5.138-5.138s2.304-5.138 5.138-5.138c2.834 0 5.138 2.304 5.138 5.138s-2.304 5.138-5.138 5.138zM22.791 0h-13.583c-5.077 0-9.209 4.132-9.209 9.209v13.583c0 5.077 4.132 9.209 9.209 9.209h13.583c5.077 0 9.209-4.132 9.209-9.209v-13.583c0-5.077-4.129-9.209-9.209-9.209zM28.832 22.791c0 3.329-2.711 6.038-6.041 6.038h-13.583c-3.329 0-6.038-2.708-6.038-6.038v-13.583c0-3.329 2.708-6.038 6.038-6.038h13.583c3.329 0 6.038 2.708 6.038 6.038v13.583h0.003zM24.422 5.29c-1.197 0-2.174 0.974-2.174 2.174 0 1.197 0.974 2.174 2.174 2.174 1.197 0 2.174-0.974 2.174-2.174s-0.977-2.174-2.174-2.174z"></path>
</symbol>
<symbol id="icon-facebook" viewBox="0 0 32 32">
<path d="M23.5 10.362h-5.113v-3.321c0-1.247 0.837-1.54 1.424-1.54h3.601v-5.483l-4.966-0.018c-5.508 0-6.758 4.089-6.758 6.708v3.654h-3.187v5.647h3.187v15.991h6.703v-15.987h4.523l0.587-5.651z"></path>
</symbol>

<symbol id="icon-logo" viewBox="0 0 132 32">
<path d="M32.262 4.289c1.563 0 2.978 0.394 4.244 1.173 1.266 0.785 2.268 1.893 3.005 3.334s1.106 3.111 1.106 5.009c0 1.899-0.369 3.58-1.106 5.043s-1.739 2.597-3.005 3.401c-1.266 0.804-2.68 1.206-4.244 1.206-1.343 0-2.526-0.279-3.55-0.838s-1.855-1.262-2.493-2.111v11.493h-4.624v-27.41h4.624v2.681c0.594-0.846 1.415-1.558 2.46-2.128s2.24-0.854 3.583-0.854zM50.657 4.289c1.739 0 3.297 0.38 4.673 1.139s2.444 1.837 3.203 3.234c0.76 1.396 1.139 2.999 1.139 4.808 0 0.67-0.044 1.273-0.132 1.809h-13.375c0.11 1.34 0.572 2.39 1.387 3.15s1.816 1.139 3.005 1.139c1.717 0 2.939-0.748 3.666-2.245h4.987c-0.528 1.787-1.541 3.256-3.038 4.406-1.497 1.153-3.336 1.726-5.515 1.726-1.761 0-3.341-0.397-4.739-1.19s-2.488-1.916-3.269-3.368c-0.782-1.452-1.172-3.127-1.172-5.026 0-1.918 0.385-3.605 1.156-5.060 0.771-1.452 1.849-2.566 3.236-3.351 1.387-0.779 2.983-1.173 4.789-1.173zM123.113 4.289c1.739 0 3.297 0.38 4.673 1.139s2.443 1.837 3.203 3.234c0.76 1.396 1.14 2.999 1.14 4.808 0 0.67-0.044 1.273-0.132 1.809h-13.375c0.109 1.34 0.572 2.39 1.387 3.15 0.814 0.76 1.816 1.139 3.005 1.139 1.718 0 2.939-0.748 3.666-2.245h4.987c-0.529 1.787-1.541 3.256-3.038 4.406-1.498 1.153-3.336 1.726-5.515 1.726-1.761 0-3.341-0.397-4.739-1.19-1.399-0.793-2.488-1.916-3.269-3.368-0.782-1.452-1.173-3.127-1.173-5.026 0-1.918 0.385-3.605 1.156-5.060 0.77-1.452 1.849-2.566 3.236-3.351 1.387-0.779 2.983-1.173 4.789-1.173zM4.569 16.859l8.504 4.998c-0.33 0.279-0.715 0.53-1.128 0.754-1.046 0.558-2.257 0.838-3.633 0.838-1.349 0-2.614-0.307-3.743-0.949v-5.641zM89.031 4.591v10.22c0 1.474 0.363 2.608 1.090 3.401s1.717 1.19 2.972 1.19c1.277 0 2.279-0.397 3.005-1.19s1.090-1.927 1.090-3.401v-10.22h4.657v18.564h-4.657v-2.346c-0.594 0.804-1.371 1.435-2.328 1.893s-1.998 0.687-3.121 0.687c-1.431 0-2.697-0.307-3.798-0.922s-1.965-1.519-2.592-2.714-0.941-2.619-0.941-4.272v-10.89h4.623zM71.298 4.323v4.926h-1.222c-1.453 0-2.548 0.346-3.286 1.039s-1.106 1.899-1.106 3.619v9.248h-4.624v-18.564h4.624v2.882c0.594-0.983 1.371-1.754 2.328-2.312s2.053-0.838 3.286-0.838zM113.998 4.323v4.926h-1.222c-1.453 0-2.549 0.346-3.286 1.039-0.738 0.692-1.107 1.899-1.107 3.619v9.248h-4.623v-18.564h4.623v2.882c0.595-0.983 1.371-1.754 2.328-2.312 0.958-0.558 2.053-0.838 3.287-0.838zM79.125 0v4.591h4.095v3.853h-4.095v8.98c0 0.625 0.149 1.078 0.446 1.357s0.798 0.419 1.503 0.419h2.147v3.954h-2.906c-3.897 0-5.845-1.921-5.845-5.764v-8.947h-2.18v-3.853h2.18v-4.591h4.657zM19.045 12.978v10.164h-4.651v-2.709c-0.22 0.335-0.468 0.642-0.771 0.921l-4.458-2.597 9.88-5.78zM3.88 11.888v10.192c-1.156-0.782-2.092-1.843-2.78-3.239-0.688-1.368-1.046-2.932-1.101-4.691l3.88-2.262zM31.040 8.41c-0.837 0-1.624 0.218-2.361 0.653s-1.332 1.067-1.783 1.893c-0.451 0.827-0.677 1.798-0.677 2.915s0.226 2.092 0.677 2.915c0.451 0.827 1.046 1.458 1.783 1.893s1.525 0.653 2.361 0.653c0.859 0 1.657-0.223 2.394-0.67s1.332-1.083 1.783-1.91c0.451-0.827 0.677-1.809 0.677-2.949 0-1.117-0.226-2.083-0.677-2.898s-1.046-1.435-1.783-1.86-1.536-0.637-2.394-0.637zM19.044 4.6v7.567l-5.972 3.49v-9.773c0.523 0.391 0.963 0.838 1.321 1.34v-2.625h4.651zM3.192 6.109l4.596 2.681-7.761 4.552c0.028-1.703 0.385-3.211 1.073-4.524 0.55-1.089 1.266-1.983 2.092-2.709zM50.525 8.142c-1.145 0-2.108 0.352-2.89 1.056s-1.26 1.681-1.437 2.932h8.686c-0.022-1.206-0.451-2.173-1.288-2.899s-1.86-1.089-3.071-1.089zM122.981 8.142c-1.145 0-2.108 0.352-2.889 1.056-0.782 0.704-1.261 1.681-1.437 2.932h8.685c-0.022-1.206-0.451-2.173-1.288-2.899-0.836-0.726-1.86-1.089-3.071-1.089zM8.366 4.294c1.349 0 2.532 0.279 3.578 0.838 0.138 0.084 0.303 0.168 0.44 0.279v5.278l-8.559-5.026c0.083-0.084 0.193-0.14 0.275-0.195 1.266-0.782 2.697-1.173 4.266-1.173z"></path>
</symbol>

</defs>
</svg>
